<?xml version="1.0" encoding="utf-8"?>
<!-- Generator: Adobe Illustrator 16.0.0, SVG Export Plug-In . SVG Version: 6.00 Build 0)  -->
<!DOCTYPE svg PUBLIC "-//W3C//DTD SVG 1.1//EN" "http://www.w3.org/Graphics/SVG/1.1/DTD/svg11.dtd">
<svg version="1.1" id="Camada_1" xmlns="http://www.w3.org/2000/svg" xmlns:xlink="http://www.w3.org/1999/xlink" x="0px" y="0px"
	 width="672.528px" height="429.67px" viewBox="0 0 672.528 429.67" enable-background="new 0 0 672.528 429.67"
	 xml:space="preserve">
<g>
	<path fill-rule="evenodd" clip-rule="evenodd" fill="#E6CB46" d="M55.423,385.323c-0.067-0.225-0.151-0.511-0.253-0.858
		c-0.101-0.348-0.208-0.679-0.32-0.993c-0.113-0.313-0.208-0.589-0.287-0.825c-0.079-0.235-0.13-0.353-0.152-0.353h-2.36
		c-0.045,0-0.309,0.033-0.792,0.101c-0.484,0.067-1.107,0.163-1.871,0.287c-0.764,0.123-1.624,0.258-2.579,0.403
		c-0.956,0.146-1.916,0.291-2.882,0.438c-0.966,0.146-1.888,0.292-2.764,0.438c-0.876,0.146-1.63,0.264-2.259,0.354
		c-0.045,0-0.151,0.012-0.32,0.034c-0.168,0.022-0.343,0.062-0.522,0.117c-0.18,0.057-0.354,0.124-0.522,0.202
		c-0.168,0.079-0.275,0.186-0.32,0.319c-0.067,0.225-0.141,0.506-0.219,0.842c-0.079,0.338-0.157,0.69-0.236,1.062
		c-0.079,0.37-0.146,0.746-0.202,1.127c-0.056,0.382-0.084,0.729-0.084,1.044c1.146,0,2.264-0.101,3.354-0.303
		c1.09-0.202,2.208-0.303,3.354-0.303c0,1.347-0.05,2.688-0.151,4.022c-0.101,1.336-0.208,2.672-0.32,4.007
		c-0.113,1.336-0.219,2.671-0.32,4.007c-0.101,1.335-0.152,2.676-0.152,4.022c0,0.067,0,0.18,0,0.337s0.005,0.325,0.017,0.505
		c0.011,0.18,0.017,0.348,0.017,0.505s0,0.27,0,0.337c0.45,0.358,0.983,0.735,1.602,1.128c0.618,0.393,1.219,0.589,1.803,0.589
		c0.292,0,0.46-0.072,0.506-0.219c0.045-0.146,0.089-0.421,0.135-0.825l1.719-19.493l7.046-1.043c0.18-0.045,0.287-0.141,0.32-0.286
		c0.034-0.146,0.05-0.275,0.05-0.388c0-0.045-0.006-0.106-0.017-0.186C55.429,385.396,55.423,385.346,55.423,385.323z"/>
	<path fill-rule="evenodd" clip-rule="evenodd" fill="#E6CB46" d="M75.313,383.472c0-0.247,0-0.415,0-0.506
		c-0.607-0.224-1.259-0.454-1.956-0.689c-0.697-0.235-1.371-0.354-2.022-0.354c-0.067,0-0.202,0.012-0.405,0.033l-0.337,1.684
		l-0.674,14.136c-0.045,0.651-0.174,1.279-0.388,1.885c-0.214,0.605-0.517,1.145-0.91,1.615c-0.394,0.472-0.854,0.853-1.382,1.145
		c-0.528,0.292-1.129,0.438-1.803,0.438c-0.36,0-0.787-0.045-1.281-0.135c-0.495-0.089-0.961-0.245-1.399-0.47
		c-0.438-0.224-0.815-0.504-1.129-0.841c-0.315-0.336-0.472-0.762-0.472-1.276v-3.696l2.697-12.77v-0.336
		c0-0.022-0.152-0.089-0.455-0.201c-0.304-0.112-0.674-0.235-1.113-0.37c-0.438-0.134-0.888-0.274-1.348-0.42
		c-0.461-0.146-0.837-0.263-1.129-0.353c-0.045-0.022-0.141-0.039-0.287-0.051c-0.146-0.011-0.253-0.017-0.32-0.017
		s-0.152,0.006-0.253,0.017c-0.101,0.012-0.151,0.028-0.151,0.051l-2.697,13.449c0,0.022,0,0.09,0,0.201
		c0,0.113-0.005,0.247-0.017,0.404c-0.012,0.157-0.017,0.325-0.017,0.504c0,0.157,0,0.28,0,0.37c0,1.457,0.157,2.847,0.472,4.17
		c0.314,1.322,0.82,2.488,1.517,3.497c0.696,1.009,1.606,1.815,2.73,2.421c1.124,0.604,2.483,0.907,4.079,0.907
		c1.888,0,3.45-0.297,4.686-0.893c1.235-0.595,2.23-1.392,2.983-2.39c0.752-0.999,1.309-2.166,1.668-3.502
		c0.359-1.335,0.612-2.737,0.759-4.208c0.146-1.471,0.224-2.969,0.236-4.495c0.011-1.525,0.051-2.996,0.118-4.41
		c0-0.022,0-0.135,0-0.337c0-0.225,0.005-0.471,0.017-0.74c0.011-0.27,0.017-0.538,0.017-0.809c0-0.269,0-0.482,0-0.64
		c0-0.09,0-0.246,0-0.472c0-0.246-0.006-0.504-0.017-0.774C75.318,383.977,75.313,383.719,75.313,383.472z"/>
	<path fill-rule="evenodd" clip-rule="evenodd" fill="#E6CB46" d="M92.219,396.081c0.91-0.651,1.64-1.483,2.191-2.494
		c0.55-1.012,0.826-2.236,0.826-3.675c0-0.898-0.084-1.775-0.253-2.629c-0.168-0.854-0.455-1.636-0.86-2.344
		c-0.404-0.708-0.933-1.325-1.584-1.854s-1.449-0.904-2.393-1.13c-0.09,0-0.259,0-0.506,0c-0.248,0-0.506-0.005-0.775-0.017
		c-0.27-0.011-0.528-0.017-0.775-0.017c-0.225,0-0.382,0-0.472,0c-0.539,0-1.208,0.006-2.005,0.017
		c-0.798,0.012-1.584,0.102-2.36,0.27c-0.775,0.169-1.472,0.438-2.09,0.809c-0.618,0.37-0.995,0.914-1.129,1.632l-4.045,20.201
		c0,0.045-0.005,0.14-0.017,0.286c-0.012,0.146-0.017,0.241-0.017,0.286c0,0.27,0.186,0.533,0.557,0.791
		c0.371,0.258,0.797,0.488,1.281,0.69c0.483,0.202,0.955,0.365,1.416,0.488c0.46,0.123,0.792,0.185,0.994,0.185
		c0.045,0,0.129-0.005,0.253-0.017c0.124-0.011,0.208-0.017,0.253-0.017c0.022-0.225,0.084-0.605,0.186-1.145
		s0.202-1.111,0.303-1.718c0.101-0.605,0.202-1.184,0.304-1.733c0.101-0.55,0.174-0.926,0.219-1.128
		c0.022-0.112,0.073-0.298,0.152-0.556c0.079-0.258,0.14-0.409,0.186-0.455c0.067-0.021,0.123-0.033,0.168-0.033
		c0.022,0,0.079,0.012,0.168,0.033l8.765,7.07c0.089,0.023,0.146,0.034,0.168,0.034c0.022,0,0.079-0.011,0.168-0.034
		c0.022-0.021,0.079-0.072,0.168-0.15s0.191-0.174,0.304-0.286c0.112-0.111,0.219-0.218,0.32-0.319
		c0.101-0.101,0.174-0.184,0.219-0.251c0.09-0.09,0.247-0.264,0.472-0.521c0.224-0.258,0.466-0.532,0.725-0.823
		c0.258-0.292,0.494-0.561,0.708-0.807c0.213-0.247,0.365-0.426,0.455-0.538c0-0.021,0.005-0.05,0.017-0.084
		c0.011-0.033,0.017-0.062,0.017-0.083c0-0.022-0.011-0.079-0.034-0.168c-0.022-0.045-0.073-0.106-0.151-0.186
		c-0.079-0.078-0.141-0.128-0.186-0.151l-8.091-4.703c-0.09-0.045-0.265-0.156-0.522-0.336c-0.259-0.179-0.421-0.291-0.489-0.336
		c1.258-0.067,2.478-0.264,3.658-0.59C90.263,397.223,91.308,396.733,92.219,396.081z M87.078,392.93
		c-0.697,0.146-1.394,0.219-2.09,0.219c-0.067,0-0.168,0-0.303,0c-0.113,0-0.236-0.005-0.371-0.017
		c-0.135-0.012-0.258-0.022-0.371-0.034c-0.113-0.011-0.18-0.017-0.202-0.017l-0.337-0.337c0.045-0.629,0.084-1.157,0.118-1.585
		c0.034-0.427,0.067-0.87,0.101-1.331s0.073-0.837,0.118-1.13c0-0.067,0.017-0.196,0.05-0.388c0.034-0.19,0.067-0.398,0.101-0.623
		s0.068-0.433,0.102-0.624c0.034-0.19,0.062-0.32,0.084-0.388c0.494-0.225,0.966-0.342,1.416-0.354
		c0.449-0.012,0.932-0.018,1.45-0.018c0.472,0,0.944,0.029,1.416,0.085c0.472,0.056,0.894,0.174,1.264,0.354
		c0.371,0.181,0.668,0.438,0.894,0.775c0.225,0.337,0.337,0.787,0.337,1.349c0,0.809-0.174,1.483-0.522,2.022
		c-0.349,0.54-0.804,0.978-1.365,1.315C88.403,392.542,87.774,392.783,87.078,392.93z"/>
	<path fill-rule="evenodd" clip-rule="evenodd" fill="#E6CB46" d="M113.103,396.097c-0.427-0.449-0.927-0.797-1.5-1.044
		c-0.573-0.246-1.197-0.46-1.871-0.64s-1.388-0.365-2.141-0.556c-0.753-0.19-1.512-0.454-2.275-0.791
		c0.831-0.112,1.668-0.252,2.511-0.421c0.843-0.168,1.607-0.426,2.292-0.774c0.686-0.348,1.242-0.83,1.669-1.447
		c0.426-0.617,0.64-1.42,0.64-2.408c0-1.122-0.18-2.093-0.539-2.912c-0.36-0.819-0.866-1.492-1.517-2.02
		c-0.652-0.527-1.428-0.915-2.326-1.162c-0.899-0.246-1.888-0.37-2.966-0.37c-0.225,0-0.72,0.057-1.483,0.169
		c-0.765,0.112-1.563,0.269-2.394,0.471c-0.832,0.203-1.579,0.455-2.242,0.758c-0.664,0.304-1.017,0.646-1.062,1.026l-2.023,19.864
		v2.357c0,0.18,0.169,0.348,0.506,0.505s0.758,0.298,1.264,0.421s1.062,0.235,1.669,0.337c0.606,0.101,1.185,0.185,1.736,0.252
		c0.55,0.067,1.034,0.118,1.45,0.151c0.416,0.034,0.68,0.051,0.792,0.051c0.921,0,1.966-0.072,3.135-0.219
		c1.168-0.146,2.298-0.421,3.388-0.825c1.09-0.403,2.056-0.953,2.899-1.649c0.843-0.695,1.41-1.604,1.703-2.728
		c0-0.067,0-0.19,0-0.37c0-0.202,0.005-0.415,0.017-0.64s0.017-0.427,0.017-0.606c0-0.201,0-0.336,0-0.403
		c0-1.077-0.118-1.964-0.354-2.66C113.861,397.118,113.529,396.546,113.103,396.097z M102.045,387.788
		c0.112-0.562,0.314-1.028,0.607-1.398c0.292-0.371,0.691-0.646,1.197-0.826c0.505-0.18,1.163-0.27,1.972-0.27
		c0.314,0,0.658,0.039,1.028,0.118c0.371,0.079,0.719,0.208,1.045,0.388s0.595,0.41,0.809,0.69c0.213,0.281,0.32,0.624,0.32,1.028
		c0,0.383-0.146,0.703-0.438,0.961c-0.292,0.259-0.669,0.472-1.129,0.641c-0.461,0.169-0.972,0.298-1.534,0.388
		c-0.562,0.09-1.107,0.151-1.635,0.186c-0.528,0.033-1.011,0.056-1.45,0.067c-0.438,0.012-0.758,0.017-0.96,0.017
		C101.877,389.014,101.933,388.351,102.045,387.788z M109.31,402.133c-0.303,0.416-0.697,0.725-1.18,0.927
		c-0.484,0.202-1.017,0.332-1.602,0.388c-0.584,0.057-1.146,0.084-1.686,0.084c-0.202,0-0.573,0.006-1.112,0.018
		c-0.54,0.011-1.096-0.012-1.669-0.067c-0.573-0.057-1.079-0.169-1.517-0.338c-0.438-0.168-0.658-0.421-0.658-0.758
		c0-0.067,0.005-0.174,0.017-0.32c0.011-0.146,0.017-0.23,0.017-0.253c0.067-0.314,0.152-0.714,0.253-1.197
		c0.101-0.482,0.208-0.96,0.32-1.433c0.112-0.472,0.208-0.876,0.287-1.214c0.079-0.337,0.129-0.517,0.152-0.539l0.337-0.337
		c0.045-0.022,0.208-0.039,0.489-0.051c0.281-0.011,0.489-0.017,0.624-0.017c0.472,0,1.124,0.039,1.956,0.118
		c0.831,0.079,1.652,0.241,2.461,0.488c0.809,0.248,1.505,0.59,2.09,1.028c0.584,0.438,0.876,1.028,0.876,1.77
		C109.765,401.149,109.614,401.717,109.31,402.133z"/>
	<path fill-rule="evenodd" clip-rule="evenodd" fill="#E6CB46" d="M120.384,383.035c-0.292-0.112-0.629-0.23-1.011-0.354
		c-0.383-0.124-0.753-0.225-1.113-0.304c-0.36-0.079-0.606-0.118-0.742-0.118c-0.067,0-0.202,0.012-0.404,0.034l-0.337,1.686
		l-1.686,18.204v4.045l3.371,1.686h0.573l1.787-22.249v-2.36C120.822,383.237,120.676,383.147,120.384,383.035z"/>
	<path fill-rule="evenodd" clip-rule="evenodd" fill="#E6CB46" d="M139.11,383.137c-0.371-0.338-0.764-0.624-1.18-0.86
		c-0.416-0.235-0.792-0.354-1.129-0.354c-0.022,0-0.067,0.012-0.135,0.033l-2.023,16.856c-0.067,0.022-0.113,0.033-0.135,0.033
		c-0.022,0-0.09-0.011-0.202-0.033c-0.045-0.022-0.107-0.073-0.186-0.152c-0.079-0.078-0.129-0.14-0.152-0.186l-9.439-15.507
		c-0.022-0.045-0.073-0.106-0.152-0.186c-0.079-0.078-0.141-0.129-0.185-0.151c-0.09-0.022-0.146-0.034-0.169-0.034
		s-0.05,0.006-0.084,0.017c-0.034,0.012-0.062,0.018-0.084,0.018c-0.022,0.067-0.05,0.196-0.084,0.388s-0.067,0.399-0.101,0.623
		c-0.034,0.226-0.068,0.434-0.102,0.624c-0.034,0.191-0.05,0.32-0.05,0.388c-0.113,0.876-0.236,1.922-0.371,3.135
		c-0.135,1.214-0.275,2.489-0.421,3.826c-0.146,1.338-0.292,2.669-0.438,3.995c-0.146,1.326-0.281,2.518-0.405,3.573
		c-0.124,1.057-0.219,1.922-0.286,2.596c-0.068,0.675-0.102,1.034-0.102,1.079v3.034c0,0.022,0.045,0.073,0.135,0.151
		c0.089,0.079,0.157,0.141,0.202,0.186c0.135,0.067,0.331,0.175,0.59,0.32c0.258,0.146,0.534,0.292,0.826,0.438
		c0.292,0.146,0.561,0.275,0.809,0.388c0.247,0.112,0.404,0.18,0.472,0.202c0.022,0.022,0.084,0.039,0.186,0.051
		c0.101,0.011,0.174,0.017,0.219,0.017c0.044,0,0.101-0.006,0.168-0.017c0.067-0.012,0.101-0.028,0.101-0.051l1.349-10.788
		l0.404-1.18l6.675,12.305h0.337c0.045,0,0.219-0.062,0.523-0.186c0.303-0.123,0.651-0.274,1.045-0.455
		c0.393-0.18,0.786-0.365,1.18-0.556c0.393-0.191,0.713-0.354,0.961-0.489c0.112-0.045,0.253-0.157,0.421-0.337
		s0.253-0.292,0.253-0.337l2.022-18.879c0-0.067,0.005-0.274,0.017-0.623c0.011-0.349,0.017-0.591,0.017-0.726
		c0-0.337-0.124-0.702-0.371-1.096C139.79,383.839,139.481,383.474,139.11,383.137z"/>
	<path fill-rule="evenodd" clip-rule="evenodd" fill="#E6CB46" d="M153.487,383.642c-0.292-0.18-0.59-0.364-0.893-0.556
		c-0.304-0.19-0.556-0.343-0.759-0.455c-0.248-0.157-0.427-0.259-0.539-0.304c-0.113-0.045-0.292-0.067-0.54-0.067
		c-0.045,0-0.135,0.012-0.27,0.034l-9.102,21.912c-0.045,0.09-0.107,0.265-0.186,0.522c-0.079,0.259-0.129,0.421-0.152,0.488v0.169
		v0.169c0.135,0.112,0.314,0.286,0.54,0.522c0.225,0.235,0.477,0.467,0.758,0.69c0.281,0.226,0.573,0.422,0.877,0.59
		c0.303,0.169,0.601,0.253,0.893,0.253c0.292,0,0.545-0.18,0.759-0.539c0.213-0.359,0.41-0.809,0.59-1.349
		c0.18-0.539,0.342-1.135,0.489-1.786c0.146-0.652,0.309-1.265,0.489-1.838c0.18-0.573,0.376-1.072,0.59-1.5
		c0.213-0.427,0.466-0.686,0.759-0.775c0.831-0.27,1.713-0.455,2.646-0.556c0.933-0.102,1.826-0.152,2.68-0.152
		c0.045,0,0.18,0.012,0.404,0.034c0.068,0.225,0.118,0.41,0.152,0.556c0.034,0.146,0.067,0.293,0.101,0.438
		c0.034,0.146,0.062,0.265,0.084,0.354c0.045,0.27,0.118,0.758,0.219,1.466s0.202,1.455,0.303,2.242s0.196,1.533,0.287,2.241
		c0.089,0.708,0.157,1.197,0.202,1.467h0.168h0.169c0.044-0.022,0.157-0.072,0.337-0.151c0.18-0.079,0.292-0.141,0.337-0.186
		c0.292-0.202,0.668-0.449,1.129-0.742c0.46-0.291,0.91-0.584,1.349-0.876c0.438-0.292,0.96-0.651,1.567-1.079v-1.686l-5.394-18.878
		C154.128,384.047,153.779,383.822,153.487,383.642z M152.864,394.43c-0.012,0.337-0.017,0.562-0.017,0.674
		c-0.45,0.135-1.034,0.299-1.753,0.489c-0.72,0.191-1.371,0.286-1.956,0.286v-0.775c0-0.021,0.09-0.28,0.27-0.775
		c0.179-0.494,0.393-1.078,0.64-1.753c0.247-0.674,0.506-1.37,0.775-2.09c0.27-0.719,0.494-1.314,0.674-1.787
		c0.067-0.18,0.152-0.364,0.253-0.556c0.101-0.19,0.241-0.343,0.421-0.455c0.135,0.674,0.247,1.264,0.337,1.77
		s0.163,0.983,0.219,1.433c0.056,0.45,0.095,0.899,0.118,1.349c0.022,0.45,0.034,0.955,0.034,1.517
		C152.881,393.868,152.875,394.093,152.864,394.43z"/>
	<path fill-rule="evenodd" clip-rule="evenodd" fill="#E6CB46" d="M178.214,383.137c-0.371-0.338-0.764-0.624-1.18-0.86
		c-0.416-0.235-0.792-0.354-1.129-0.354c-0.022,0-0.067,0.012-0.135,0.033l-2.023,16.856c-0.067,0.022-0.113,0.033-0.135,0.033
		c-0.022,0-0.09-0.011-0.202-0.033c-0.045-0.022-0.107-0.073-0.186-0.152c-0.079-0.078-0.129-0.14-0.152-0.186l-9.439-15.507
		c-0.022-0.045-0.073-0.106-0.152-0.186c-0.079-0.078-0.141-0.129-0.185-0.151c-0.09-0.022-0.146-0.034-0.169-0.034
		s-0.05,0.006-0.084,0.017c-0.034,0.012-0.062,0.018-0.084,0.018c-0.022,0.067-0.05,0.196-0.084,0.388s-0.067,0.399-0.101,0.623
		c-0.034,0.226-0.068,0.434-0.102,0.624c-0.034,0.191-0.05,0.32-0.05,0.388c-0.113,0.876-0.236,1.922-0.371,3.135
		c-0.135,1.214-0.275,2.489-0.421,3.826c-0.146,1.338-0.292,2.669-0.438,3.995c-0.146,1.326-0.281,2.518-0.405,3.573
		c-0.124,1.057-0.219,1.922-0.286,2.596c-0.068,0.675-0.102,1.034-0.102,1.079v3.034c0,0.022,0.045,0.073,0.135,0.151
		c0.089,0.079,0.157,0.141,0.202,0.186c0.135,0.067,0.331,0.175,0.59,0.32c0.258,0.146,0.534,0.292,0.826,0.438
		c0.292,0.146,0.561,0.275,0.809,0.388c0.247,0.112,0.404,0.18,0.472,0.202c0.022,0.022,0.084,0.039,0.186,0.051
		c0.101,0.011,0.174,0.017,0.219,0.017c0.044,0,0.101-0.006,0.168-0.017c0.067-0.012,0.101-0.028,0.101-0.051l1.349-10.788
		l0.404-1.18l6.675,12.305h0.337c0.045,0,0.219-0.062,0.523-0.186c0.303-0.123,0.651-0.274,1.045-0.455
		c0.393-0.18,0.786-0.365,1.18-0.556c0.393-0.191,0.713-0.354,0.961-0.489c0.112-0.045,0.253-0.157,0.421-0.337
		s0.253-0.292,0.253-0.337l2.022-18.879c0-0.067,0.005-0.274,0.017-0.623c0.011-0.349,0.017-0.591,0.017-0.726
		c0-0.337-0.124-0.702-0.371-1.096C178.894,383.839,178.585,383.474,178.214,383.137z"/>
	<path fill-rule="evenodd" clip-rule="evenodd" fill="#E6CB46" d="M197.126,386.989c-0.686-1.155-1.59-2.16-2.713-3.014
		c-1.124-0.853-2.506-1.525-4.146-2.02c-0.18-0.045-0.438-0.112-0.775-0.202c-0.337-0.089-0.528-0.135-0.573-0.135h-7.417
		c-0.045,0.494-0.101,1.258-0.168,2.29s-0.146,2.199-0.236,3.501c-0.09,1.302-0.186,2.677-0.287,4.124
		c-0.101,1.448-0.197,2.823-0.287,4.125c-0.09,1.302-0.168,2.475-0.236,3.518c-0.068,1.044-0.113,1.813-0.135,2.307
		c0,0.045,0,0.168,0,0.37c0,0.18-0.005,0.394-0.017,0.64c-0.012,0.247-0.017,0.506-0.017,0.774c0,0.247,0,0.438,0,0.572
		c0,0.091,0,0.247,0,0.472s0.005,0.466,0.017,0.724c0.011,0.259,0.017,0.5,0.017,0.724c0,0.203,0,0.349,0,0.438
		c0.225,0.404,0.557,0.718,0.995,0.942c0.438,0.225,0.916,0.393,1.433,0.505s1.034,0.186,1.551,0.219
		c0.517,0.034,0.966,0.051,1.349,0.051c1.505,0,3.005-0.163,4.5-0.488c1.494-0.325,2.865-0.847,4.113-1.565
		c1.247-0.718,2.309-1.661,3.186-2.828s1.46-2.581,1.753-4.242c0-0.135,0-0.358,0-0.673s0.005-0.651,0.017-1.01
		c0.011-0.359,0.017-0.696,0.017-1.011c0-0.313,0-0.539,0-0.674c0-1.616-0.151-3.136-0.455-4.562
		C198.306,389.437,197.812,388.146,197.126,386.989z M194.059,398.568c-0.417,1.223-1.045,2.21-1.888,2.961
		c-0.843,0.752-1.91,1.29-3.202,1.615c-1.293,0.326-2.815,0.488-4.568,0.488c0-0.135,0.005-0.364,0.017-0.689
		c0.011-0.325,0.022-0.679,0.034-1.061c0.011-0.381,0.028-0.734,0.051-1.06c0.022-0.325,0.034-0.556,0.034-0.69
		c0.022-0.358,0.067-0.925,0.135-1.699c0.067-0.773,0.146-1.648,0.236-2.625c0.09-0.975,0.186-2.002,0.287-3.078
		c0.101-1.077,0.196-2.103,0.287-3.079c0.089-0.976,0.168-1.851,0.236-2.625c0.067-0.773,0.124-1.34,0.168-1.699h0.506
		c1.213,0,2.326,0.247,3.337,0.741c1.011,0.493,1.888,1.144,2.629,1.951s1.315,1.738,1.719,2.793
		c0.405,1.055,0.607,2.143,0.607,3.264C194.682,395.849,194.474,397.346,194.059,398.568z"/>
	<path fill-rule="evenodd" clip-rule="evenodd" fill="#E6CB46" d="M216.509,385.02c-0.798-1.032-1.77-1.862-2.916-2.491
		c-1.146-0.628-2.461-0.942-3.944-0.942c-1.73,0-3.219,0.415-4.466,1.245c-1.248,0.831-2.282,1.886-3.102,3.165
		c-0.821,1.28-1.428,2.693-1.82,4.242c-0.394,1.549-0.59,3.053-0.59,4.512c0,0.854,0.067,1.768,0.203,2.744
		c0.135,0.977,0.348,1.947,0.64,2.912s0.663,1.902,1.113,2.812c0.449,0.909,0.994,1.711,1.635,2.407
		c0.641,0.695,1.376,1.251,2.208,1.666s1.775,0.623,2.832,0.623c1.168,0,2.242-0.246,3.219-0.74s1.859-1.15,2.646-1.97
		c0.786-0.819,1.478-1.762,2.073-2.828c0.595-1.066,1.096-2.166,1.5-3.3c0.405-1.133,0.708-2.267,0.91-3.4
		c0.203-1.134,0.304-2.172,0.304-3.114c0-1.369-0.208-2.71-0.624-4.023C217.914,387.226,217.307,386.053,216.509,385.02z
		 M214.537,396.23c-0.27,1.121-0.669,2.198-1.197,3.229c-0.528,1.032-1.174,1.912-1.938,2.641c-0.765,0.729-1.652,1.094-2.664,1.094
		c-1.011,0-1.86-0.291-2.545-0.874c-0.686-0.583-1.236-1.301-1.652-2.153c-0.416-0.853-0.714-1.767-0.894-2.742
		c-0.18-0.976-0.27-1.867-0.27-2.675c0-0.874,0.089-1.794,0.27-2.758c0.18-0.965,0.483-1.84,0.91-2.625
		c0.427-0.784,0.989-1.435,1.686-1.951c0.696-0.516,1.573-0.773,2.629-0.773c0.877,0,1.686,0.196,2.427,0.589
		c0.742,0.393,1.382,0.902,1.922,1.53c0.539,0.628,0.96,1.34,1.264,2.137c0.303,0.796,0.455,1.609,0.455,2.438
		C214.942,394.145,214.807,395.109,214.537,396.23z"/>
	<path fill-rule="evenodd" clip-rule="evenodd" fill="#E6CB46" d="M247.237,383.642c-0.292-0.18-0.59-0.364-0.893-0.556
		c-0.304-0.19-0.556-0.343-0.759-0.455c-0.248-0.157-0.427-0.259-0.539-0.304c-0.113-0.045-0.292-0.067-0.54-0.067
		c-0.045,0-0.135,0.012-0.27,0.034l-9.102,21.912c-0.045,0.09-0.107,0.265-0.186,0.522c-0.079,0.259-0.129,0.421-0.152,0.488v0.169
		v0.169c0.135,0.112,0.314,0.286,0.54,0.522c0.225,0.235,0.477,0.467,0.758,0.69c0.281,0.226,0.573,0.422,0.877,0.59
		c0.303,0.169,0.601,0.253,0.893,0.253c0.292,0,0.545-0.18,0.759-0.539c0.213-0.359,0.41-0.809,0.59-1.349
		c0.18-0.539,0.342-1.135,0.489-1.786c0.146-0.652,0.309-1.265,0.489-1.838c0.18-0.573,0.376-1.072,0.59-1.5
		c0.213-0.427,0.466-0.686,0.759-0.775c0.831-0.27,1.713-0.455,2.646-0.556c0.933-0.102,1.826-0.152,2.68-0.152
		c0.045,0,0.18,0.012,0.404,0.034c0.068,0.225,0.118,0.41,0.152,0.556c0.034,0.146,0.067,0.293,0.101,0.438
		c0.034,0.146,0.062,0.265,0.084,0.354c0.045,0.27,0.118,0.758,0.219,1.466s0.202,1.455,0.303,2.242s0.196,1.533,0.287,2.241
		c0.089,0.708,0.157,1.197,0.202,1.467h0.168h0.169c0.044-0.022,0.157-0.072,0.337-0.151c0.18-0.079,0.292-0.141,0.337-0.186
		c0.292-0.202,0.668-0.449,1.129-0.742c0.46-0.291,0.91-0.584,1.349-0.876c0.438-0.292,0.96-0.651,1.567-1.079v-1.686l-5.394-18.878
		C247.877,384.047,247.529,383.822,247.237,383.642z M246.613,394.43c-0.012,0.337-0.017,0.562-0.017,0.674
		c-0.45,0.135-1.034,0.299-1.753,0.489c-0.72,0.191-1.371,0.286-1.956,0.286v-0.775c0-0.021,0.09-0.28,0.27-0.775
		c0.179-0.494,0.393-1.078,0.64-1.753c0.247-0.674,0.506-1.37,0.775-2.09c0.27-0.719,0.494-1.314,0.674-1.787
		c0.067-0.18,0.152-0.364,0.253-0.556c0.101-0.19,0.241-0.343,0.421-0.455c0.135,0.674,0.247,1.264,0.337,1.77
		s0.163,0.983,0.219,1.433c0.056,0.45,0.095,0.899,0.118,1.349c0.022,0.45,0.034,0.955,0.034,1.517
		C246.63,393.868,246.625,394.093,246.613,394.43z"/>
	<path fill-rule="evenodd" clip-rule="evenodd" fill="#E6CB46" d="M286.796,394.282c-0.619-0.628-1.349-1.15-2.191-1.565
		s-1.736-0.745-2.68-0.992s-1.927-0.421-2.95-0.521c-1.023-0.102-2.028-0.152-3.017-0.152c-0.922-0.269-1.382-0.863-1.382-1.784
		c0-0.538,0.096-0.998,0.287-1.379c0.191-0.382,0.444-0.69,0.759-0.926c0.314-0.236,0.691-0.404,1.129-0.505
		c0.438-0.102,0.893-0.152,1.365-0.152c0.742,0,1.41,0.057,2.006,0.169c0.595,0.112,1.151,0.286,1.668,0.522
		c0.517,0.236,1.011,0.551,1.483,0.944s0.955,0.871,1.45,1.433h0.674l3.034-2.022c0.022-0.067,0.034-0.112,0.034-0.135
		c0-0.63-0.157-1.197-0.472-1.703c-0.315-0.506-0.731-0.955-1.248-1.349c-0.517-0.393-1.102-0.729-1.753-1.011
		c-0.652-0.281-1.31-0.511-1.972-0.691c-0.663-0.18-1.304-0.314-1.921-0.404c-0.619-0.09-1.152-0.135-1.602-0.135
		c-1.213,0-2.416,0.157-3.607,0.472c-1.191,0.313-2.259,0.791-3.203,1.431c-0.944,0.639-1.708,1.447-2.292,2.423
		c-0.584,0.977-0.876,2.126-0.876,3.45c0,1.189,0.208,2.16,0.624,2.911c0.416,0.752,0.966,1.352,1.652,1.801
		c0.685,0.448,1.46,0.785,2.326,1.01s1.753,0.404,2.664,0.539s1.803,0.258,2.68,0.37s1.657,0.292,2.343,0.538
		c0.685,0.247,1.235,0.601,1.652,1.061c0.416,0.46,0.624,1.082,0.624,1.868c0,0.358-0.051,0.734-0.152,1.127
		c-0.101,0.394-0.253,0.764-0.455,1.111s-0.455,0.656-0.758,0.926c-0.304,0.269-0.646,0.448-1.028,0.538c-0.067,0-0.202,0-0.404,0
		c-0.18,0-0.383,0.006-0.607,0.017c-0.225,0.012-0.438,0.017-0.641,0.017c-0.18,0-0.303,0-0.371,0c-0.135,0-0.315,0-0.54,0
		c-0.225,0-0.444-0.005-0.657-0.017c-0.214-0.011-0.399-0.017-0.556-0.017c-0.158,0-0.248,0-0.27,0
		c-0.404-0.022-0.843-0.196-1.314-0.522c-0.472-0.326-0.911-0.675-1.315-1.045c-0.404-0.371-0.753-0.714-1.045-1.028
		c-0.292-0.314-0.461-0.473-0.506-0.473c-0.337,0-0.697,0.079-1.079,0.236c-0.382,0.157-0.736,0.365-1.062,0.624
		c-0.326,0.259-0.596,0.556-0.809,0.894c-0.214,0.337-0.32,0.674-0.32,1.011c0,0.944,0.326,1.72,0.978,2.326
		s1.433,1.091,2.343,1.449c0.91,0.36,1.854,0.607,2.832,0.742s1.792,0.202,2.444,0.202c1.326,0,2.59-0.157,3.792-0.471
		c1.202-0.314,2.264-0.809,3.186-1.481c0.921-0.673,1.657-1.531,2.208-2.574c0.55-1.044,0.826-2.295,0.826-3.754
		c0-1.166-0.18-2.193-0.54-3.079C287.903,395.668,287.414,394.911,286.796,394.282z"/>
	<path fill-rule="evenodd" clip-rule="evenodd" fill="#E6CB46" d="M301.882,383.642c-0.292-0.18-0.59-0.364-0.893-0.556
		c-0.304-0.19-0.556-0.343-0.759-0.455c-0.248-0.157-0.427-0.259-0.539-0.304c-0.113-0.045-0.292-0.067-0.54-0.067
		c-0.045,0-0.135,0.012-0.27,0.034l-9.102,21.912c-0.045,0.09-0.107,0.265-0.186,0.522c-0.079,0.259-0.129,0.421-0.152,0.488v0.169
		v0.169c0.135,0.112,0.314,0.286,0.54,0.522c0.225,0.235,0.477,0.467,0.758,0.69c0.281,0.226,0.573,0.422,0.877,0.59
		c0.303,0.169,0.601,0.253,0.893,0.253c0.292,0,0.545-0.18,0.759-0.539c0.213-0.359,0.41-0.809,0.59-1.349
		c0.18-0.539,0.342-1.135,0.489-1.786c0.146-0.652,0.309-1.265,0.489-1.838c0.18-0.573,0.376-1.072,0.59-1.5
		c0.213-0.427,0.466-0.686,0.759-0.775c0.831-0.27,1.713-0.455,2.646-0.556c0.933-0.102,1.826-0.152,2.68-0.152
		c0.045,0,0.18,0.012,0.404,0.034c0.068,0.225,0.118,0.41,0.152,0.556c0.034,0.146,0.067,0.293,0.101,0.438
		c0.034,0.146,0.062,0.265,0.084,0.354c0.045,0.27,0.118,0.758,0.219,1.466s0.202,1.455,0.303,2.242s0.196,1.533,0.287,2.241
		c0.089,0.708,0.157,1.197,0.202,1.467h0.168h0.169c0.044-0.022,0.157-0.072,0.337-0.151c0.18-0.079,0.292-0.141,0.337-0.186
		c0.292-0.202,0.668-0.449,1.129-0.742c0.461-0.291,0.91-0.584,1.349-0.876s0.961-0.651,1.567-1.079v-1.686l-5.394-18.878
		C302.522,384.047,302.174,383.822,301.882,383.642z M301.258,394.43c-0.012,0.337-0.017,0.562-0.017,0.674
		c-0.45,0.135-1.034,0.299-1.753,0.489c-0.72,0.191-1.371,0.286-1.956,0.286v-0.775c0-0.021,0.09-0.28,0.27-0.775
		c0.179-0.494,0.393-1.078,0.64-1.753c0.247-0.674,0.506-1.37,0.775-2.09c0.27-0.719,0.494-1.314,0.674-1.787
		c0.067-0.18,0.152-0.364,0.253-0.556c0.101-0.19,0.241-0.343,0.421-0.455c0.135,0.674,0.247,1.264,0.337,1.77
		s0.163,0.983,0.219,1.433c0.056,0.45,0.095,0.899,0.118,1.349c0.022,0.45,0.034,0.955,0.034,1.517
		C301.275,393.868,301.27,394.093,301.258,394.43z"/>
	<path fill-rule="evenodd" clip-rule="evenodd" fill="#E6CB46" d="M326.525,377.54c-0.135-0.021-0.226-0.033-0.27-0.033
		c-0.338,0-0.652,0.073-0.944,0.219c-0.292,0.146-0.596,0.286-0.91,0.422c-0.202,0.09-0.545,0.252-1.028,0.488s-1,0.478-1.551,0.725
		c-0.551,0.248-1.067,0.489-1.551,0.725c-0.483,0.236-0.814,0.399-0.994,0.489c-0.181,0.045-0.281,0.124-0.304,0.236
		s-0.033,0.235-0.033,0.37c0,0.315,0.095,0.602,0.286,0.86c0.19,0.258,0.455,0.388,0.792,0.388c0.045,0,0.124-0.006,0.236-0.018
		c0.112-0.011,0.19-0.017,0.236-0.017c0.27-0.09,0.746-0.253,1.433-0.488c0.685-0.236,1.416-0.483,2.191-0.742
		c0.775-0.258,1.505-0.5,2.19-0.725s1.163-0.382,1.434-0.472c0.089-0.045,0.207-0.102,0.354-0.169
		c0.146-0.067,0.23-0.112,0.253-0.135c0.022-0.09,0.033-0.146,0.033-0.169c0-0.021-0.011-0.067-0.033-0.135L326.525,377.54z"/>
	<path fill-rule="evenodd" clip-rule="evenodd" fill="#E6CB46" d="M328.21,383.472c0-0.247,0-0.415,0-0.506
		c-0.607-0.224-1.259-0.454-1.955-0.689c-0.697-0.235-1.371-0.354-2.023-0.354c-0.067,0-0.202,0.012-0.404,0.033l-0.337,1.684
		l-0.674,14.136c-0.046,0.651-0.175,1.279-0.388,1.885c-0.214,0.605-0.518,1.145-0.91,1.615c-0.394,0.472-0.854,0.853-1.383,1.145
		s-1.129,0.438-1.804,0.438c-0.359,0-0.786-0.045-1.28-0.135c-0.495-0.089-0.961-0.245-1.399-0.47
		c-0.438-0.224-0.814-0.504-1.129-0.841c-0.315-0.336-0.473-0.762-0.473-1.276v-3.696l2.697-12.77v-0.336
		c0-0.022-0.151-0.089-0.455-0.201s-0.675-0.235-1.112-0.37c-0.438-0.134-0.889-0.274-1.349-0.42
		c-0.461-0.146-0.838-0.263-1.13-0.353c-0.045-0.022-0.141-0.039-0.286-0.051c-0.146-0.011-0.253-0.017-0.32-0.017
		s-0.151,0.006-0.253,0.017c-0.101,0.012-0.151,0.028-0.151,0.051l-2.697,13.449c0,0.022,0,0.09,0,0.201
		c0,0.113-0.006,0.247-0.017,0.404c-0.012,0.157-0.017,0.325-0.017,0.504c0,0.157,0,0.28,0,0.37c0,1.457,0.156,2.847,0.472,4.17
		c0.314,1.322,0.82,2.488,1.517,3.497s1.606,1.815,2.731,2.421c1.123,0.604,2.482,0.907,4.078,0.907c1.889,0,3.45-0.297,4.687-0.893
		c1.235-0.595,2.23-1.392,2.983-2.39c0.753-0.999,1.309-2.166,1.669-3.502c0.358-1.335,0.611-2.737,0.758-4.208
		s0.225-2.969,0.236-4.495c0.011-1.525,0.051-2.996,0.118-4.41c0-0.022,0-0.135,0-0.337c0-0.225,0.005-0.471,0.017-0.74
		c0.011-0.27,0.017-0.538,0.017-0.809c0-0.269,0-0.482,0-0.64c0-0.09,0-0.246,0-0.472c0-0.246-0.006-0.504-0.017-0.774
		C328.215,383.977,328.21,383.719,328.21,383.472z"/>
	<path fill-rule="evenodd" clip-rule="evenodd" fill="#E6CB46" d="M345.858,386.989c-0.686-1.155-1.59-2.16-2.714-3.014
		c-1.124-0.853-2.506-1.525-4.146-2.02c-0.18-0.045-0.438-0.112-0.775-0.202c-0.337-0.089-0.528-0.135-0.573-0.135h-7.416
		c-0.045,0.494-0.102,1.258-0.169,2.29s-0.146,2.199-0.235,3.501c-0.09,1.302-0.186,2.677-0.287,4.124
		c-0.101,1.448-0.196,2.823-0.286,4.125s-0.169,2.475-0.236,3.518c-0.067,1.044-0.112,1.813-0.135,2.307c0,0.045,0,0.168,0,0.37
		c0,0.18-0.006,0.394-0.017,0.64c-0.012,0.247-0.017,0.506-0.017,0.774c0,0.247,0,0.438,0,0.572c0,0.091,0,0.247,0,0.472
		s0.005,0.466,0.017,0.724c0.011,0.259,0.017,0.5,0.017,0.724c0,0.203,0,0.349,0,0.438c0.225,0.404,0.557,0.718,0.995,0.942
		c0.438,0.225,0.915,0.393,1.433,0.505c0.517,0.112,1.033,0.186,1.551,0.219c0.517,0.034,0.966,0.051,1.348,0.051
		c1.506,0,3.006-0.163,4.501-0.488c1.494-0.325,2.865-0.847,4.112-1.565c1.248-0.718,2.31-1.661,3.187-2.828
		c0.876-1.167,1.46-2.581,1.753-4.242c0-0.135,0-0.358,0-0.673s0.005-0.651,0.017-1.01c0.011-0.359,0.017-0.696,0.017-1.011
		c0-0.313,0-0.539,0-0.674c0-1.616-0.151-3.136-0.455-4.562C347.038,389.437,346.543,388.146,345.858,386.989z M342.791,398.568
		c-0.416,1.223-1.045,2.21-1.888,2.961c-0.843,0.752-1.911,1.29-3.203,1.615c-1.292,0.326-2.814,0.488-4.567,0.488
		c0-0.135,0.005-0.364,0.017-0.689c0.011-0.325,0.022-0.679,0.034-1.061c0.011-0.381,0.027-0.734,0.05-1.06s0.034-0.556,0.034-0.69
		c0.022-0.358,0.067-0.925,0.135-1.699c0.067-0.773,0.146-1.648,0.236-2.625c0.089-0.975,0.185-2.002,0.286-3.078
		c0.102-1.077,0.196-2.103,0.286-3.079c0.09-0.976,0.169-1.851,0.236-2.625c0.067-0.773,0.123-1.34,0.169-1.699h0.505
		c1.214,0,2.326,0.247,3.338,0.741c1.012,0.493,1.888,1.144,2.63,1.951c0.741,0.808,1.314,1.738,1.719,2.793
		s0.606,2.143,0.606,3.264C343.414,395.849,343.206,397.346,342.791,398.568z"/>
	<path fill-rule="evenodd" clip-rule="evenodd" fill="#E6CB46" d="M350.796,381.519l-2.36,20.665v3.371l3.371,2.359h0.27h0.405
		c0.314-0.022,0.797-0.072,1.449-0.151c0.651-0.079,1.388-0.163,2.208-0.253s1.686-0.18,2.596-0.27s1.775-0.18,2.596-0.271
		c0.82-0.089,1.551-0.174,2.191-0.252c0.641-0.079,1.118-0.13,1.433-0.152c0.247-0.067,0.427-0.331,0.54-0.792
		c0.111-0.46,0.185-0.966,0.219-1.517c0.033-0.551,0.045-1.067,0.033-1.551c-0.011-0.483-0.017-0.793-0.017-0.928
		c-0.067,0-0.202,0-0.404,0s-0.422,0.006-0.657,0.018c-0.236,0.011-0.455,0.022-0.657,0.033c-0.203,0.012-0.338,0.017-0.405,0.017
		c-0.18,0.023-0.534,0.057-1.062,0.102c-0.528,0.045-1.152,0.101-1.871,0.168c-0.72,0.068-1.483,0.142-2.292,0.22
		c-0.81,0.079-1.573,0.157-2.293,0.236c-0.719,0.078-1.343,0.141-1.871,0.185c-0.528,0.046-0.882,0.079-1.062,0.102h-0.27
		c0-0.202,0.005-0.606,0.017-1.214c0.011-0.606,0.039-1.23,0.084-1.871s0.106-1.213,0.186-1.719s0.186-0.759,0.32-0.759h8.091
		c0.067-0.449,0.118-0.826,0.151-1.129c0.034-0.304,0.068-0.618,0.102-0.944c0.034-0.325,0.062-0.59,0.084-0.792v-0.675v-0.674
		c-0.292-0.045-0.686-0.084-1.18-0.118c-0.494-0.033-1.028-0.067-1.602-0.101c-0.572-0.034-1.157-0.073-1.753-0.118
		s-1.135-0.112-1.618-0.202s-0.876-0.208-1.18-0.354c-0.304-0.146-0.455-0.331-0.455-0.556c0-0.045,0.006-0.141,0.017-0.287
		c0.012-0.146,0.018-0.241,0.018-0.286c0.045-0.337,0.101-0.775,0.168-1.314c0.067-0.54,0.141-1.057,0.22-1.551
		c0.078-0.494,0.174-1.113,0.286-1.854l0.337-0.337l11.462,2.359h0.337c0.045,0,0.106-0.174,0.186-0.522
		c0.079-0.348,0.129-0.623,0.152-0.826c0-0.021,0.005-0.112,0.017-0.27c0.011-0.157,0.017-0.337,0.017-0.539s0.006-0.398,0.017-0.59
		c0.012-0.19,0.018-0.343,0.018-0.455c0-0.18-0.023-0.573-0.067-1.18L350.796,381.519z"/>
	<path fill-rule="evenodd" clip-rule="evenodd" fill="#E6CB46" d="M400.166,386.989c-0.686-1.155-1.59-2.16-2.714-3.014
		c-1.124-0.853-2.506-1.525-4.146-2.02c-0.18-0.045-0.438-0.112-0.775-0.202c-0.337-0.089-0.528-0.135-0.573-0.135h-7.416
		c-0.045,0.494-0.102,1.258-0.169,2.29s-0.146,2.199-0.235,3.501c-0.09,1.302-0.186,2.677-0.287,4.124
		c-0.101,1.448-0.196,2.823-0.286,4.125s-0.169,2.475-0.236,3.518c-0.067,1.044-0.112,1.813-0.135,2.307c0,0.045,0,0.168,0,0.37
		c0,0.18-0.006,0.394-0.017,0.64c-0.012,0.247-0.017,0.506-0.017,0.774c0,0.247,0,0.438,0,0.572c0,0.091,0,0.247,0,0.472
		s0.005,0.466,0.017,0.724c0.011,0.259,0.017,0.5,0.017,0.724c0,0.203,0,0.349,0,0.438c0.225,0.404,0.557,0.718,0.995,0.942
		c0.438,0.225,0.915,0.393,1.433,0.505c0.517,0.112,1.033,0.186,1.551,0.219c0.517,0.034,0.966,0.051,1.348,0.051
		c1.506,0,3.006-0.163,4.501-0.488c1.494-0.325,2.865-0.847,4.112-1.565c1.248-0.718,2.31-1.661,3.187-2.828
		c0.876-1.167,1.46-2.581,1.753-4.242c0-0.135,0-0.358,0-0.673s0.005-0.651,0.017-1.01c0.011-0.359,0.017-0.696,0.017-1.011
		c0-0.313,0-0.539,0-0.674c0-1.616-0.151-3.136-0.455-4.562C401.345,389.437,400.851,388.146,400.166,386.989z M397.098,398.568
		c-0.416,1.223-1.045,2.21-1.888,2.961c-0.843,0.752-1.911,1.29-3.203,1.615c-1.292,0.326-2.814,0.488-4.567,0.488
		c0-0.135,0.005-0.364,0.017-0.689c0.011-0.325,0.022-0.679,0.034-1.061c0.011-0.381,0.027-0.734,0.05-1.06s0.034-0.556,0.034-0.69
		c0.022-0.358,0.067-0.925,0.135-1.699c0.067-0.773,0.146-1.648,0.236-2.625c0.089-0.975,0.185-2.002,0.286-3.078
		c0.102-1.077,0.196-2.103,0.286-3.079c0.09-0.976,0.169-1.851,0.236-2.625c0.067-0.773,0.123-1.34,0.169-1.699h0.505
		c1.214,0,2.326,0.247,3.338,0.741c1.012,0.493,1.888,1.144,2.63,1.951c0.741,0.808,1.314,1.738,1.719,2.793
		s0.606,2.143,0.606,3.264C397.721,395.849,397.513,397.346,397.098,398.568z"/>
	<path fill-rule="evenodd" clip-rule="evenodd" fill="#E6CB46" d="M415.183,383.642c-0.292-0.18-0.59-0.364-0.894-0.556
		c-0.303-0.19-0.556-0.343-0.758-0.455c-0.248-0.157-0.428-0.259-0.54-0.304s-0.292-0.067-0.539-0.067
		c-0.045,0-0.135,0.012-0.27,0.034l-9.103,21.912c-0.045,0.09-0.106,0.265-0.185,0.522c-0.079,0.259-0.13,0.421-0.152,0.488v0.169
		v0.169c0.135,0.112,0.314,0.286,0.54,0.522c0.224,0.235,0.477,0.467,0.758,0.69c0.281,0.226,0.573,0.422,0.877,0.59
		c0.303,0.169,0.601,0.253,0.894,0.253c0.291,0,0.544-0.18,0.758-0.539s0.41-0.809,0.59-1.349c0.18-0.539,0.343-1.135,0.489-1.786
		c0.146-0.652,0.309-1.265,0.488-1.838s0.377-1.072,0.591-1.5c0.213-0.427,0.466-0.686,0.758-0.775
		c0.831-0.27,1.714-0.455,2.646-0.556c0.933-0.102,1.826-0.152,2.68-0.152c0.045,0,0.18,0.012,0.405,0.034
		c0.067,0.225,0.118,0.41,0.151,0.556c0.034,0.146,0.067,0.293,0.102,0.438c0.033,0.146,0.062,0.265,0.084,0.354
		c0.045,0.27,0.118,0.758,0.219,1.466c0.102,0.708,0.202,1.455,0.304,2.242s0.196,1.533,0.286,2.241s0.157,1.197,0.203,1.467h0.168
		h0.169c0.045-0.022,0.156-0.072,0.337-0.151c0.18-0.079,0.292-0.141,0.337-0.186c0.292-0.202,0.669-0.449,1.13-0.742
		c0.46-0.291,0.91-0.584,1.348-0.876c0.438-0.292,0.961-0.651,1.568-1.079v-1.686l-5.395-18.878
		C415.824,384.047,415.475,383.822,415.183,383.642z M414.56,394.43c-0.012,0.337-0.018,0.562-0.018,0.674
		c-0.449,0.135-1.033,0.299-1.753,0.489c-0.72,0.191-1.371,0.286-1.955,0.286v-0.775c0-0.021,0.09-0.28,0.27-0.775
		c0.18-0.494,0.394-1.078,0.641-1.753c0.247-0.674,0.506-1.37,0.775-2.09c0.27-0.719,0.494-1.314,0.675-1.787
		c0.067-0.18,0.151-0.364,0.252-0.556c0.102-0.19,0.241-0.343,0.422-0.455c0.135,0.674,0.247,1.264,0.337,1.77
		s0.163,0.983,0.22,1.433c0.056,0.45,0.095,0.899,0.117,1.349c0.022,0.45,0.034,0.955,0.034,1.517
		C414.577,393.868,414.571,394.093,414.56,394.43z"/>
	<path fill-rule="evenodd" clip-rule="evenodd" fill="#E6CB46" d="M454.743,394.282c-0.618-0.628-1.348-1.15-2.19-1.565
		s-1.736-0.745-2.681-0.992c-0.943-0.247-1.927-0.421-2.949-0.521c-1.023-0.102-2.029-0.152-3.018-0.152
		c-0.922-0.269-1.382-0.863-1.382-1.784c0-0.538,0.095-0.998,0.286-1.379c0.19-0.382,0.443-0.69,0.759-0.926
		c0.314-0.236,0.691-0.404,1.129-0.505c0.438-0.102,0.894-0.152,1.365-0.152c0.742,0,1.41,0.057,2.006,0.169
		s1.151,0.286,1.669,0.522c0.517,0.236,1.012,0.551,1.483,0.944s0.955,0.871,1.449,1.433h0.675l3.034-2.022
		c0.021-0.067,0.033-0.112,0.033-0.135c0-0.63-0.157-1.197-0.472-1.703c-0.315-0.506-0.73-0.955-1.247-1.349
		c-0.518-0.393-1.102-0.729-1.753-1.011c-0.652-0.281-1.31-0.511-1.973-0.691c-0.663-0.18-1.304-0.314-1.922-0.404
		s-1.151-0.135-1.601-0.135c-1.214,0-2.416,0.157-3.607,0.472c-1.191,0.313-2.259,0.791-3.202,1.431
		c-0.944,0.639-1.709,1.447-2.293,2.423c-0.584,0.977-0.876,2.126-0.876,3.45c0,1.189,0.207,2.16,0.623,2.911
		c0.416,0.752,0.967,1.352,1.652,1.801c0.686,0.448,1.461,0.785,2.326,1.01c0.864,0.225,1.753,0.404,2.663,0.539
		s1.804,0.258,2.68,0.37c0.877,0.112,1.657,0.292,2.343,0.538c0.686,0.247,1.236,0.601,1.652,1.061
		c0.415,0.46,0.623,1.082,0.623,1.868c0,0.358-0.05,0.734-0.151,1.127c-0.101,0.394-0.253,0.764-0.455,1.111
		s-0.455,0.656-0.759,0.926c-0.303,0.269-0.646,0.448-1.027,0.538c-0.068,0-0.203,0-0.405,0c-0.18,0-0.382,0.006-0.606,0.017
		c-0.225,0.012-0.438,0.017-0.641,0.017c-0.18,0-0.304,0-0.371,0c-0.135,0-0.314,0-0.539,0s-0.444-0.005-0.657-0.017
		c-0.214-0.011-0.399-0.017-0.557-0.017s-0.247,0-0.27,0c-0.404-0.022-0.843-0.196-1.314-0.522s-0.91-0.675-1.314-1.045
		c-0.405-0.371-0.754-0.714-1.046-1.028s-0.461-0.473-0.505-0.473c-0.338,0-0.697,0.079-1.079,0.236
		c-0.383,0.157-0.736,0.365-1.062,0.624c-0.326,0.259-0.597,0.556-0.81,0.894c-0.214,0.337-0.32,0.674-0.32,1.011
		c0,0.944,0.325,1.72,0.978,2.326c0.651,0.606,1.433,1.091,2.343,1.449c0.91,0.36,1.854,0.607,2.832,0.742s1.792,0.202,2.444,0.202
		c1.325,0,2.59-0.157,3.792-0.471c1.202-0.314,2.265-0.809,3.186-1.481c0.922-0.673,1.657-1.531,2.209-2.574
		c0.55-1.044,0.825-2.295,0.825-3.754c0-1.166-0.18-2.193-0.539-3.079C455.85,395.668,455.361,394.911,454.743,394.282z"/>
	<path fill-rule="evenodd" clip-rule="evenodd" fill="#E6CB46" d="M476.604,383.472c0-0.247,0-0.415,0-0.506
		c-0.607-0.224-1.259-0.454-1.955-0.689c-0.697-0.235-1.371-0.354-2.023-0.354c-0.067,0-0.202,0.012-0.404,0.033l-0.337,1.684
		l-0.674,14.136c-0.046,0.651-0.175,1.279-0.388,1.885c-0.214,0.605-0.518,1.145-0.91,1.615c-0.394,0.472-0.854,0.853-1.383,1.145
		s-1.129,0.438-1.804,0.438c-0.359,0-0.786-0.045-1.28-0.135c-0.495-0.089-0.961-0.245-1.399-0.47
		c-0.438-0.224-0.814-0.504-1.129-0.841c-0.315-0.336-0.473-0.762-0.473-1.276v-3.696l2.697-12.77v-0.336
		c0-0.022-0.151-0.089-0.455-0.201s-0.675-0.235-1.112-0.37c-0.438-0.134-0.889-0.274-1.349-0.42
		c-0.461-0.146-0.838-0.263-1.13-0.353c-0.045-0.022-0.141-0.039-0.286-0.051c-0.146-0.011-0.253-0.017-0.32-0.017
		s-0.151,0.006-0.253,0.017c-0.101,0.012-0.151,0.028-0.151,0.051l-2.697,13.449c0,0.022,0,0.09,0,0.201
		c0,0.113-0.006,0.247-0.017,0.404c-0.012,0.157-0.017,0.325-0.017,0.504c0,0.157,0,0.28,0,0.37c0,1.457,0.156,2.847,0.472,4.17
		c0.314,1.322,0.82,2.488,1.517,3.497s1.606,1.815,2.731,2.421c1.123,0.604,2.482,0.907,4.078,0.907c1.889,0,3.45-0.297,4.687-0.893
		c1.235-0.595,2.23-1.392,2.983-2.39c0.753-0.999,1.309-2.166,1.669-3.502c0.358-1.335,0.611-2.737,0.758-4.208
		s0.225-2.969,0.236-4.495c0.011-1.525,0.051-2.996,0.118-4.41c0-0.022,0-0.135,0-0.337c0-0.225,0.005-0.471,0.017-0.74
		c0.011-0.27,0.017-0.538,0.017-0.809c0-0.269,0-0.482,0-0.64c0-0.09,0-0.246,0-0.472c0-0.246-0.006-0.504-0.017-0.774
		C476.609,383.977,476.604,383.719,476.604,383.472z"/>
	<path fill-rule="evenodd" clip-rule="evenodd" fill="#E6CB46" d="M489.717,383.642c-0.292-0.18-0.59-0.364-0.894-0.556
		c-0.303-0.19-0.556-0.343-0.758-0.455c-0.248-0.157-0.428-0.259-0.54-0.304s-0.292-0.067-0.539-0.067
		c-0.045,0-0.135,0.012-0.27,0.034l-9.103,21.912c-0.045,0.09-0.106,0.265-0.185,0.522c-0.079,0.259-0.13,0.421-0.152,0.488v0.169
		v0.169c0.135,0.112,0.314,0.286,0.54,0.522c0.224,0.235,0.477,0.467,0.758,0.69c0.281,0.226,0.573,0.422,0.877,0.59
		c0.303,0.169,0.601,0.253,0.894,0.253c0.291,0,0.544-0.18,0.758-0.539s0.41-0.809,0.59-1.349c0.18-0.539,0.343-1.135,0.489-1.786
		c0.146-0.652,0.309-1.265,0.488-1.838s0.377-1.072,0.591-1.5c0.213-0.427,0.466-0.686,0.758-0.775
		c0.831-0.27,1.714-0.455,2.646-0.556c0.933-0.102,1.826-0.152,2.68-0.152c0.045,0,0.18,0.012,0.405,0.034
		c0.067,0.225,0.118,0.41,0.151,0.556c0.034,0.146,0.067,0.293,0.102,0.438c0.033,0.146,0.062,0.265,0.084,0.354
		c0.045,0.27,0.118,0.758,0.219,1.466c0.102,0.708,0.202,1.455,0.304,2.242s0.196,1.533,0.286,2.241s0.157,1.197,0.203,1.467h0.168
		h0.169c0.045-0.022,0.156-0.072,0.337-0.151c0.18-0.079,0.292-0.141,0.337-0.186c0.292-0.202,0.669-0.449,1.13-0.742
		c0.46-0.291,0.91-0.584,1.348-0.876c0.438-0.292,0.961-0.651,1.568-1.079v-1.686l-5.395-18.878
		C490.358,384.047,490.009,383.822,489.717,383.642z M489.094,394.43c-0.012,0.337-0.018,0.562-0.018,0.674
		c-0.449,0.135-1.033,0.299-1.753,0.489c-0.72,0.191-1.371,0.286-1.955,0.286v-0.775c0-0.021,0.09-0.28,0.27-0.775
		c0.18-0.494,0.394-1.078,0.641-1.753c0.247-0.674,0.506-1.37,0.775-2.09c0.27-0.719,0.494-1.314,0.675-1.787
		c0.067-0.18,0.151-0.364,0.252-0.556c0.102-0.19,0.241-0.343,0.422-0.455c0.135,0.674,0.247,1.264,0.337,1.77
		s0.163,0.983,0.22,1.433c0.056,0.45,0.095,0.899,0.117,1.349c0.022,0.45,0.034,0.955,0.034,1.517
		C489.111,393.868,489.105,394.093,489.094,394.43z"/>
	<path fill-rule="evenodd" clip-rule="evenodd" fill="#E6CB46" d="M521.271,391.598l-6.877-8.967h-0.338
		c-0.067,0.314-0.117,0.579-0.151,0.792c-0.033,0.214-0.067,0.433-0.101,0.657c-0.034,0.225-0.063,0.416-0.085,0.573
		c-0.09,0.854-0.191,1.894-0.303,3.118c-0.113,1.226-0.231,2.512-0.354,3.86c-0.124,1.348-0.247,2.696-0.371,4.045
		c-0.123,1.349-0.235,2.568-0.337,3.658c-0.101,1.09-0.18,1.988-0.235,2.696c-0.057,0.708-0.085,1.096-0.085,1.163v3.371
		c0,0.067,0.208,0.186,0.624,0.354c0.415,0.168,0.894,0.337,1.433,0.505c0.539,0.169,1.079,0.315,1.618,0.438
		s0.943,0.186,1.214,0.186v-13.99c0.337,0.202,0.679,0.483,1.028,0.843c0.348,0.36,0.679,0.736,0.994,1.13
		c0.314,0.393,0.601,0.775,0.859,1.146c0.258,0.371,0.478,0.681,0.657,0.928h0.337c0.157-0.136,0.444-0.359,0.86-0.675
		c0.415-0.314,0.854-0.651,1.314-1.011c0.46-0.359,0.898-0.697,1.314-1.012s0.714-0.539,0.894-0.674
		c0.112-0.09,0.298-0.214,0.557-0.371c0.258-0.157,0.409-0.258,0.455-0.304c0.045-0.022,0.101-0.017,0.168,0.017
		c0.067,0.034,0.124,0.051,0.169,0.051v0.27l-2.359,11.462v0.202c0,0.135,0.213,0.31,0.64,0.522
		c0.427,0.214,0.916,0.422,1.467,0.624s1.096,0.371,1.635,0.506c0.54,0.135,0.922,0.202,1.146,0.202c0.045,0,0.129,0,0.253,0
		c0.123,0,0.207,0,0.253,0c0.045-0.517,0.101-1.32,0.168-2.41s0.146-2.326,0.236-3.708c0.09-1.383,0.186-2.826,0.286-4.332
		c0.102-1.506,0.197-2.95,0.287-4.332c0.09-1.383,0.168-2.618,0.236-3.708c0.067-1.09,0.111-1.894,0.135-2.411
		c0-0.156,0.005-0.449,0.017-0.876c0.011-0.427,0.022-0.871,0.033-1.332c0.012-0.46,0.022-0.898,0.034-1.314
		c0.011-0.416,0.017-0.702,0.017-0.859h-0.438L521.271,391.598z"/>
	<path fill-rule="evenodd" clip-rule="evenodd" fill="#E6CB46" d="M544.025,383.642c-0.292-0.18-0.59-0.364-0.894-0.556
		c-0.303-0.19-0.556-0.343-0.758-0.455c-0.248-0.157-0.428-0.259-0.54-0.304s-0.292-0.067-0.539-0.067
		c-0.045,0-0.135,0.012-0.27,0.034l-9.103,21.912c-0.045,0.09-0.106,0.265-0.185,0.522c-0.079,0.259-0.13,0.421-0.152,0.488v0.169
		v0.169c0.135,0.112,0.314,0.286,0.54,0.522c0.224,0.235,0.477,0.467,0.758,0.69c0.281,0.226,0.573,0.422,0.877,0.59
		c0.303,0.169,0.601,0.253,0.894,0.253c0.291,0,0.544-0.18,0.758-0.539s0.41-0.809,0.59-1.349c0.18-0.539,0.343-1.135,0.489-1.786
		c0.146-0.652,0.309-1.265,0.488-1.838s0.377-1.072,0.591-1.5c0.213-0.427,0.466-0.686,0.758-0.775
		c0.831-0.27,1.714-0.455,2.646-0.556c0.933-0.102,1.826-0.152,2.68-0.152c0.045,0,0.18,0.012,0.405,0.034
		c0.067,0.225,0.118,0.41,0.151,0.556c0.034,0.146,0.067,0.293,0.102,0.438c0.033,0.146,0.062,0.265,0.084,0.354
		c0.045,0.27,0.118,0.758,0.219,1.466c0.102,0.708,0.202,1.455,0.304,2.242s0.196,1.533,0.286,2.241s0.157,1.197,0.203,1.467h0.168
		h0.169c0.045-0.022,0.156-0.072,0.337-0.151c0.18-0.079,0.292-0.141,0.337-0.186c0.292-0.202,0.669-0.449,1.13-0.742
		c0.46-0.291,0.91-0.584,1.348-0.876c0.438-0.292,0.961-0.651,1.568-1.079v-1.686l-5.395-18.878
		C544.666,384.047,544.317,383.822,544.025,383.642z M543.402,394.43c-0.012,0.337-0.018,0.562-0.018,0.674
		c-0.449,0.135-1.033,0.299-1.753,0.489c-0.72,0.191-1.371,0.286-1.955,0.286v-0.775c0-0.021,0.09-0.28,0.27-0.775
		c0.18-0.494,0.394-1.078,0.641-1.753c0.247-0.674,0.506-1.37,0.775-2.09c0.27-0.719,0.494-1.314,0.675-1.787
		c0.067-0.18,0.151-0.364,0.252-0.556c0.102-0.19,0.241-0.343,0.422-0.455c0.135,0.674,0.247,1.264,0.337,1.77
		s0.163,0.983,0.22,1.433c0.056,0.45,0.095,0.899,0.117,1.349c0.022,0.45,0.034,0.955,0.034,1.517
		C543.418,393.868,543.413,394.093,543.402,394.43z"/>
	<path fill-rule="evenodd" clip-rule="evenodd" fill="#E6CB46" d="M567.371,396.081c0.91-0.651,1.64-1.483,2.191-2.494
		c0.55-1.012,0.825-2.236,0.825-3.675c0-0.898-0.084-1.775-0.253-2.629c-0.168-0.854-0.455-1.636-0.859-2.344
		s-0.933-1.325-1.584-1.854c-0.652-0.528-1.45-0.904-2.394-1.13c-0.09,0-0.259,0-0.506,0c-0.248,0-0.506-0.005-0.775-0.017
		c-0.27-0.011-0.528-0.017-0.775-0.017c-0.225,0-0.383,0-0.472,0c-0.54,0-1.209,0.006-2.006,0.017
		c-0.798,0.012-1.585,0.102-2.36,0.27c-0.775,0.169-1.472,0.438-2.09,0.809c-0.618,0.37-0.994,0.914-1.129,1.632l-4.046,20.201
		c0,0.045-0.006,0.14-0.017,0.286c-0.012,0.146-0.017,0.241-0.017,0.286c0,0.27,0.186,0.533,0.556,0.791
		c0.371,0.258,0.798,0.488,1.281,0.69s0.955,0.365,1.416,0.488c0.46,0.123,0.792,0.185,0.994,0.185c0.045,0,0.129-0.005,0.253-0.017
		c0.123-0.011,0.208-0.017,0.253-0.017c0.022-0.225,0.084-0.605,0.186-1.145c0.101-0.539,0.202-1.111,0.304-1.718
		c0.101-0.605,0.202-1.184,0.303-1.733c0.102-0.55,0.174-0.926,0.22-1.128c0.021-0.112,0.072-0.298,0.151-0.556
		c0.078-0.258,0.14-0.409,0.186-0.455c0.067-0.021,0.123-0.033,0.168-0.033c0.022,0,0.079,0.012,0.169,0.033l8.765,7.07
		c0.09,0.023,0.146,0.034,0.169,0.034s0.078-0.011,0.169-0.034c0.021-0.021,0.078-0.072,0.168-0.15s0.19-0.174,0.304-0.286
		c0.112-0.111,0.219-0.218,0.32-0.319c0.101-0.101,0.174-0.184,0.219-0.251c0.09-0.09,0.247-0.264,0.472-0.521
		c0.225-0.258,0.467-0.532,0.726-0.823c0.258-0.292,0.494-0.561,0.708-0.807c0.213-0.247,0.364-0.426,0.455-0.538
		c0-0.021,0.005-0.05,0.017-0.084c0.011-0.033,0.017-0.062,0.017-0.083c0-0.022-0.012-0.079-0.033-0.168
		c-0.023-0.045-0.073-0.106-0.152-0.186c-0.079-0.078-0.141-0.128-0.186-0.151l-8.09-4.703c-0.091-0.045-0.265-0.156-0.523-0.336
		c-0.258-0.179-0.421-0.291-0.488-0.336c1.258-0.067,2.478-0.264,3.657-0.59C565.416,397.223,566.46,396.733,567.371,396.081z
		 M562.229,392.93c-0.696,0.146-1.394,0.219-2.09,0.219c-0.067,0-0.168,0-0.304,0c-0.112,0-0.235-0.005-0.37-0.017
		s-0.259-0.022-0.371-0.034c-0.112-0.011-0.18-0.017-0.202-0.017l-0.337-0.337c0.045-0.629,0.084-1.157,0.118-1.585
		c0.033-0.427,0.067-0.87,0.101-1.331c0.034-0.461,0.072-0.837,0.118-1.13c0-0.067,0.017-0.196,0.051-0.388
		c0.033-0.19,0.067-0.398,0.101-0.623c0.034-0.225,0.067-0.433,0.102-0.624c0.033-0.19,0.062-0.32,0.084-0.388
		c0.494-0.225,0.966-0.342,1.416-0.354c0.449-0.012,0.933-0.018,1.449-0.018c0.473,0,0.944,0.029,1.416,0.085
		s0.894,0.174,1.265,0.354c0.37,0.181,0.668,0.438,0.893,0.775s0.338,0.787,0.338,1.349c0,0.809-0.175,1.483-0.522,2.022
		c-0.349,0.54-0.804,0.978-1.365,1.315C563.555,392.542,562.925,392.783,562.229,392.93z"/>
	<path fill-rule="evenodd" clip-rule="evenodd" fill="#E6CB46" d="M576.539,389.232c0.528-0.784,1.219-1.413,2.073-1.884
		s1.899-0.706,3.136-0.706c0.809,0,1.466,0.146,1.972,0.438c0.506,0.293,0.916,0.607,1.23,0.944s0.562,0.652,0.742,0.944
		c0.179,0.292,0.337,0.438,0.472,0.438c0.045,0,0.112-0.005,0.202-0.017c0.09-0.011,0.146-0.017,0.169-0.017
		c0.135-0.045,0.358-0.129,0.674-0.253c0.314-0.123,0.651-0.258,1.012-0.404c0.358-0.146,0.696-0.281,1.011-0.405
		c0.314-0.123,0.54-0.219,0.675-0.286c0-0.045,0.005-0.157,0.017-0.337c0.011-0.18,0.017-0.292,0.017-0.337
		c0-1.034-0.23-1.922-0.691-2.664c-0.46-0.741-1.057-1.336-1.786-1.786c-0.73-0.449-1.54-0.78-2.428-0.994s-1.77-0.32-2.646-0.32
		c-2.203,0-4.035,0.337-5.495,1.01c-1.461,0.673-2.63,1.61-3.506,2.812c-0.877,1.201-1.495,2.637-1.854,4.309
		c-0.359,1.673-0.539,3.496-0.539,5.472c0,1.661,0.123,3.255,0.37,4.781s0.72,2.879,1.416,4.057
		c0.696,1.179,1.663,2.121,2.899,2.828c1.235,0.707,2.832,1.061,4.787,1.061c1.079,0,2.18-0.157,3.304-0.472
		c1.123-0.314,2.141-0.793,3.051-1.433c0.91-0.641,1.657-1.438,2.242-2.394c0.584-0.955,0.876-2.062,0.876-3.321
		c0-0.067-0.006-0.207-0.017-0.421c-0.012-0.214-0.017-0.354-0.017-0.422c-0.518-0.382-1.118-0.651-1.804-0.809
		c-0.687-0.157-1.344-0.236-1.973-0.236c-0.09,0-0.23,0.191-0.421,0.573c-0.191,0.383-0.434,0.82-0.725,1.314
		c-0.293,0.495-0.619,0.961-0.978,1.399c-0.36,0.438-0.754,0.703-1.181,0.792c-0.067,0-0.19,0.006-0.37,0.017
		c-0.181,0.012-0.371,0.018-0.573,0.018c-0.181,0-0.36,0.006-0.54,0.017c-0.18,0.012-0.303,0.017-0.37,0.017
		c-1.102,0-2.028-0.207-2.781-0.622c-0.754-0.415-1.365-0.964-1.838-1.648c-0.472-0.684-0.809-1.475-1.011-2.371
		c-0.202-0.897-0.304-1.839-0.304-2.826c0-1.099,0.118-2.153,0.354-3.162C575.628,390.915,576.01,390.018,576.539,389.232z"/>
	<path fill-rule="evenodd" clip-rule="evenodd" fill="#E6CB46" d="M603.019,383.642c-0.292-0.18-0.59-0.364-0.894-0.556
		c-0.303-0.19-0.556-0.343-0.758-0.455c-0.248-0.157-0.428-0.259-0.54-0.304s-0.292-0.067-0.539-0.067
		c-0.045,0-0.135,0.012-0.27,0.034l-9.103,21.912c-0.045,0.09-0.106,0.265-0.185,0.522c-0.079,0.259-0.13,0.421-0.152,0.488v0.169
		v0.169c0.135,0.112,0.314,0.286,0.54,0.522c0.224,0.235,0.477,0.467,0.758,0.69c0.281,0.226,0.573,0.422,0.877,0.59
		c0.303,0.169,0.601,0.253,0.894,0.253c0.291,0,0.544-0.18,0.758-0.539s0.41-0.809,0.59-1.349c0.18-0.539,0.343-1.135,0.489-1.786
		c0.146-0.652,0.309-1.265,0.488-1.838s0.377-1.072,0.591-1.5c0.213-0.427,0.466-0.686,0.758-0.775
		c0.831-0.27,1.714-0.455,2.646-0.556c0.933-0.102,1.826-0.152,2.68-0.152c0.045,0,0.18,0.012,0.405,0.034
		c0.067,0.225,0.118,0.41,0.151,0.556c0.034,0.146,0.067,0.293,0.102,0.438c0.033,0.146,0.062,0.265,0.084,0.354
		c0.045,0.27,0.118,0.758,0.219,1.466c0.102,0.708,0.202,1.455,0.304,2.242s0.196,1.533,0.286,2.241s0.157,1.197,0.203,1.467h0.168
		h0.169c0.045-0.022,0.156-0.072,0.337-0.151c0.18-0.079,0.292-0.141,0.337-0.186c0.292-0.202,0.669-0.449,1.13-0.742
		c0.46-0.291,0.91-0.584,1.348-0.876c0.438-0.292,0.961-0.651,1.568-1.079v-1.686l-5.395-18.878
		C603.66,384.047,603.311,383.822,603.019,383.642z M602.396,394.43c-0.012,0.337-0.018,0.562-0.018,0.674
		c-0.449,0.135-1.033,0.299-1.753,0.489c-0.72,0.191-1.371,0.286-1.955,0.286v-0.775c0-0.021,0.09-0.28,0.27-0.775
		c0.18-0.494,0.394-1.078,0.641-1.753c0.247-0.674,0.506-1.37,0.775-2.09c0.27-0.719,0.494-1.314,0.675-1.787
		c0.067-0.18,0.151-0.364,0.252-0.556c0.102-0.19,0.241-0.343,0.422-0.455c0.135,0.674,0.247,1.264,0.337,1.77
		s0.163,0.983,0.22,1.433c0.056,0.45,0.095,0.899,0.117,1.349c0.022,0.45,0.034,0.955,0.034,1.517
		C602.413,393.868,602.407,394.093,602.396,394.43z"/>
	<path fill-rule="evenodd" clip-rule="evenodd" fill="#E6CB46" d="M49.346,348.896c5.951-0.266,11.166-2.436,15.633-6.496
		c4.466-4.061,8.324-9.199,11.572-15.43c3.249-6.225,5.951-12.994,8.121-20.303c2.164-7.309,3.858-14.345,5.076-21.114
		c1.218-6.763,2.094-12.721,2.64-17.866c0.539-5.139,0.945-8.527,1.218-10.15c0.267-2.703-0.476-4.733-2.233-6.092
		c-1.764-1.351-3.725-2.029-5.888-2.029c-2.17,0-4.264,0.679-6.294,2.029c-2.03,1.358-3.045,3.389-3.045,6.092
		c0,2.981-0.545,8.26-1.624,15.836c-1.085,7.581-2.506,15.296-4.264,23.145c-1.764,7.854-3.794,14.82-6.09,20.91
		c-2.303,6.092-4.67,9.137-7.106,9.137c-2.17,0-4.333-2.57-6.497-7.715c-2.17-5.139-3.857-11.572-5.076-19.287
		s-1.897-15.969-2.03-24.77c-0.14-8.793,0.875-16.983,3.045-24.564c0.539-2.438-0.812-4.125-4.061-5.076
		c-3.249-0.945-6.903-1.148-10.963-0.609c-4.061,0.546-7.918,2.03-11.572,4.467c-3.654,2.436-5.621,5.957-5.888,10.557
		c-1.351,10.558-1.688,21.254-1.015,32.078c0.673,10.83,2.437,20.574,5.279,29.236c2.842,8.666,6.833,15.631,11.978,20.91
		C35.401,347.069,41.765,349.442,49.346,348.896z"/>
	<path fill-rule="evenodd" clip-rule="evenodd" fill="#E6CB46" d="M105.357,234.188c4.646,1.551,9.386,2.032,14.226,1.451
		c2.513-0.385,4.936-1.061,7.258-2.032c2.323-0.966,4.355-2.177,6.097-3.629c1.742-1.451,3.048-3.094,3.919-4.935
		c0.871-1.838,1.111-3.82,0.726-5.953c-0.581-4.064-3.098-7.013-7.548-8.854c-4.455-1.837-9.486-2.272-15.097-1.306
		c-5.616,0.971-10.116,2.953-13.5,5.952c-3.384,3.003-4.69,6.633-3.919,10.887C98.1,229.833,100.712,232.642,105.357,234.188z"/>
	<path fill-rule="evenodd" clip-rule="evenodd" fill="#E6CB46" d="M430.355,231.807c4.113,1.373,8.309,1.799,12.593,1.284
		c2.226-0.34,4.369-0.939,6.426-1.799c2.056-0.854,3.854-1.927,5.396-3.212c1.543-1.284,2.698-2.738,3.47-4.368
		c0.771-1.627,0.984-3.381,0.644-5.27c-0.515-3.598-2.743-6.207-6.683-7.837c-3.942-1.626-8.396-2.012-13.363-1.156
		c-4.972,0.859-8.955,2.614-11.95,5.268c-2.996,2.658-4.152,5.87-3.47,9.637C423.931,227.952,426.244,230.438,430.355,231.807z"/>
	<path fill-rule="evenodd" clip-rule="evenodd" fill="#E6CB46" d="M660.946,291.907c-0.743-1.346-1.754-2.263-3.028-2.75
		c-1.279-0.489-2.678-0.476-4.193,0.034c-1.521,0.516-2.724,1.743-3.616,3.684c-0.72,2.176-2.086,5.292-4.097,9.353
		c-2.017,4.061-4.185,8.1-6.501,12.118c-2.319,4.019-4.563,7.481-6.723,10.383c-2.166,2.907-3.854,4.269-5.07,4.099
		c-1.626-0.228-2.436-2.2-2.431-5.923c0.003-3.721,0.46-8.101,1.371-13.145c0.909-5.04,2.103-10.253,3.579-15.63
		c1.474-5.377,2.872-9.834,4.195-13.37c0.771-2.579,0.582-4.931-0.565-7.06c-1.153-2.123-2.779-3.8-4.881-5.023
		c-2.106-1.225-4.388-1.902-6.85-2.042c-2.461-0.136-4.633,0.594-6.51,2.191c-1.081-2.632-2.543-5.108-4.389-7.437
		c-1.847-2.322-4.147-3.991-6.902-4.996c-7.308-2.465-13.859-2.193-19.655,0.821c-5.8,3.019-10.722,7.551-14.771,13.6
		c-4.053,6.056-7.146,13.067-9.297,21.034c-0.518,1.922-0.964,3.836-1.347,5.74c-1.771,3.376-3.647,6.606-5.634,9.688
		c-2.709,4.199-5.418,7.785-8.121,10.76c-2.709,2.982-4.873,4.467-6.496,4.467c-1.357,0-2.303-1.961-2.842-5.887
		c-0.547-3.922-0.813-8.527-0.813-13.807c0-5.277,0.336-10.487,1.016-15.633c0.672-5.139,1.42-8.933,2.232-11.369
		c1.352-3.515,0.945-6.224-1.219-8.121c-2.17-1.891-5.012-2.905-8.527-3.045c-3.52-0.133-7.174,0.545-10.963,2.03
		c-3.793,1.491-6.77,3.591-8.932,6.294c-2.982,4.061-5.889,9.002-8.73,14.82c-2.842,5.824-5.35,12.385-7.512,19.693
		c-0.273-2.703-0.203-6.154,0.203-10.354c0.406-4.193,1.014-8.66,1.826-13.399c0.813-4.732,1.688-9.473,2.641-14.211
		c0.945-4.733,1.688-8.997,2.232-12.791c0.539-4.061-0.68-7.036-3.654-8.934c-2.982-1.891-6.434-2.702-10.354-2.436
		c-3.928,0.272-7.785,1.764-11.572,4.467c-3.795,2.709-6.092,6.77-6.904,12.182c-1.084,5.418-1.623,11.508-1.623,18.271
		c0,6.77,0.133,13.742,0.406,20.912c0.118,3.199,0.238,6.32,0.359,9.385c-0.122,0.322-0.234,0.646-0.357,0.969
		c-2.17,5.684-4.404,10.627-6.701,14.82c-2.303,4.201-4.264,6.293-5.887,6.293c-2.438,0-3.998-2.436-4.67-7.309
		c-0.68-4.871-0.883-10.689-0.609-17.459c0.268-6.764,0.875-13.806,1.828-21.115c0.945-7.309,1.959-13.398,3.045-18.271
		c0.813-4.327-0.273-7.981-3.248-10.963c-2.982-2.977-6.498-4.733-10.559-5.279c-4.059-0.539-7.783,0.406-11.166,2.843
		c-3.387,2.437-5.074,6.903-5.074,13.399c0,8.666-0.344,17.529-1.016,26.596c-0.165,2.232-0.293,4.422-0.386,6.571
		c-1.412,3.251-2.868,6.437-4.379,9.539c-2.43,4.979-4.919,9.259-7.469,12.831c-2.556,3.58-4.597,5.363-6.128,5.363
		c-1.024,0-1.473-1.658-1.342-4.98c0.126-3.314,0.509-7.469,1.15-12.447c0.634-4.979,1.4-10.535,2.297-16.663
		c0.892-6.128,1.851-11.999,2.875-17.619c1.017-5.613,1.848-10.594,2.488-14.938c0.634-4.338,1.084-7.402,1.34-9.192
		c0.252-3.831-0.765-6.571-3.064-8.235c-2.297-1.658-5.11-2.489-8.425-2.489c-3.322,0-6.77,0.831-10.344,2.489
		c-3.578,1.664-6.259,3.771-8.042,6.32c-1.282,1.531-3.005,3.962-5.172,7.277c-2.172,3.321-4.536,6.961-7.086,10.917
		c-2.556,3.962-5.11,8.109-7.661,12.449c-2.555,4.344-4.597,8.3-6.128,11.873c0.509-5.105,1.018-9.827,1.531-14.173
		c0.509-4.339,1.02-7.277,1.533-8.809c1.275-3.316,0.892-5.872-1.149-7.661c-2.047-1.783-4.662-2.681-7.853-2.681
		c-3.195,0-6.643,0.705-10.342,2.106c-3.705,1.405-6.452,3.387-8.235,5.936c-1.531,1.79-3.195,4.214-4.979,7.278
		c-1.79,3.064-3.514,6.452-5.172,10.15c-1.664,3.704-3.255,7.47-4.788,11.299c-1.532,3.83-2.813,7.535-3.83,11.108
		c0-2.549,0.251-6.703,0.766-12.448c0.509-5.745,1.149-11.808,1.915-18.193c0.766-6.381,1.658-12.641,2.681-18.77
		c1.018-6.129,1.915-10.976,2.681-14.555c0.767-3.064-0.322-5.039-3.255-5.938c-2.939-0.892-6.386-0.766-10.342,0.384
		c-3.962,1.148-7.852,3.321-11.682,6.511c-3.831,3.196-6.26,7.602-7.278,13.215c-0.766,5.111-1.149,11.491-1.149,19.152
		c0,6.607,0.151,13.317,0.437,20.112c-1.394,4.071-2.908,8.143-4.552,12.214c-1.878,4.636-3.757,8.668-5.63,12.089
		c-1.878,3.427-3.478,5.133-4.802,5.133c-1.77,0-2.929-1.987-3.478-5.962c-0.554-3.973-0.719-8.719-0.497-14.24
		c0.217-5.517,0.714-11.261,1.49-17.223c0.771-5.961,1.599-10.929,2.484-14.903c0.44-2.867-0.114-5.351-1.656-7.452
		c-1.547-2.096-3.535-3.643-5.962-4.637c-2.432-0.993-4.968-1.376-7.617-1.158c-2.649,0.222-4.859,1.324-6.624,3.312
		c-1.547-2.649-3.477-5.077-5.796-7.286c-2.318-2.205-5.024-3.644-8.114-4.306c-8.171-1.542-15.126-0.274-20.866,3.809
		c-5.744,4.088-10.324,9.661-13.745,16.725c-3.177,6.557-5.335,13.881-6.517,21.951c-2.138,5.205-4.459,10.503-6.984,15.899
		c-2.982,6.363-5.888,11.979-8.73,16.85c-2.843,4.873-5.076,7.311-6.7,7.311c-1.897,0-3.115-3.453-3.654-10.355
		c-0.545-6.902-0.679-15.563-0.406-25.986c0.266-10.418,0.812-21.521,1.624-33.296s0.088-4.964,1.173-14.708h12.181
		c4.327,0,7.715-0.813,10.151-2.438c2.437-1.623,3.654-3.451,3.654-5.48c0-2.031-1.155-3.922-3.451-5.686
		c-2.303-1.757-6.027-2.639-11.167-2.639h-9.745l3.699-28.129c0.812-4.327-0.342-7.848-3.451-10.558
		c-3.115-2.703-6.7-4.193-10.76-4.466c-4.061-0.267-7.854,0.882-11.369,3.451c-3.521,2.576-5.279,7.106-5.279,13.603
		c0,1.358-0.07,2.912-0.203,4.67c-0.14,1.764-1.872,21.163-1.872,23.054h-10.963c-4.873,0-8.388,0.812-10.557,2.437
		c-2.164,1.624-3.179,3.388-3.045,5.278c0.14,1.897,1.357,3.654,3.654,5.278c2.303,1.625,5.621,2.437,9.948,2.437h9.745
		c-0.546,7.854,0.451-1.128-0.361,8.212c-0.812,9.339-1.352,18.614-1.625,27.814c-0.243,8.403-0.197,16.569,0.12,24.52
		c-1.952,4.939-3.954,9.291-6.006,13.039c-2.303,4.201-4.263,6.293-5.888,6.293c-2.436,0-3.997-2.436-4.669-7.309
		c-0.679-4.871-0.882-10.689-0.609-17.459c0.266-6.764,0.875-13.806,1.827-21.115c0.945-7.309,1.96-13.398,3.045-18.271
		c0.812-4.327-0.273-7.981-3.249-10.963c-2.982-2.977-6.497-4.733-10.557-5.279c-4.061-0.539-7.785,0.406-11.167,2.843
		c-3.388,2.437-5.075,6.903-5.075,13.399c0,8.666-0.343,17.529-1.015,26.596c-0.673,9.072-0.743,17.461-0.203,25.176
		c0.545,7.715,2.366,14.484,5.481,20.301c3.109,5.824,8.324,9.816,15.633,11.979c4.873,1.352,9.339,0.813,13.399-1.623
		c4.061-2.438,7.778-5.889,11.167-10.355c0.386-0.51,0.765-1.03,1.14-1.557c1.623,6.414,4.014,11.604,7.183,15.566
		c3.248,4.061,7.442,6.09,12.587,6.09c7.848,0,14.618-2.98,20.302-8.932c5.097-5.336,9.536-11.558,13.328-18.641
		c1.372,4.374,3.163,8.405,5.394,12.076c3.751,6.178,8.828,10.152,15.235,11.923c3.529,0.879,7.617,0.55,12.254-0.994
		c4.854-1.986,8.829-5.133,11.923-9.439c3.089-4.304,5.517-9.107,7.287-14.406c2.867,5.962,7.503,9.828,13.91,11.592
		c3.975,1.103,7.669,0.662,11.095-1.324c3.42-1.988,6.51-4.803,9.273-8.446c1.673-2.209,3.209-4.646,4.64-7.263
		c0.268,6.079,0.288,11.028,0.067,14.839c-0.257,3.83,0.958,6.644,3.639,8.428c2.681,1.783,5.746,2.681,9.193,2.681
		s6.637-0.831,9.576-2.489c2.933-1.658,4.656-4.147,5.171-7.47c0.509-3.063,1.4-7.277,2.681-12.639
		c1.276-5.363,2.741-10.594,4.405-15.705c1.657-5.105,3.256-9.702,4.787-13.789c1.533-4.082,2.934-6.38,4.214-6.895
		c0.252,0.766,0.316,2.873,0.191,6.32c-0.131,3.447-0.191,7.277-0.191,11.491c0,4.212,0.125,8.558,0.383,13.022
		c0.251,4.472,0.767,7.983,1.533,10.533c0.765,2.555,2.231,3.83,4.403,3.83c2.167,0,4.53-0.575,7.086-1.723
		c2.55-1.149,4.789-2.683,6.705-4.597c1.914-1.916,3.123-3.639,3.639-5.172v0.383c0.765-1.783,2.298-5.17,4.595-10.149
		c2.3-4.98,4.789-10.086,7.47-15.322c2.683-5.23,5.297-10.018,7.853-14.363c2.55-4.339,4.464-6.763,5.746-7.277
		c-0.767,2.047-1.533,5.172-2.3,9.385c-0.766,4.212-1.405,9.001-1.914,14.364c-0.516,5.361-0.641,10.789-0.383,16.277
		c0.25,5.494,1.083,10.408,2.489,14.747c1.4,4.345,3.699,7.661,6.894,9.958c3.191,2.3,7.47,2.939,12.833,1.916
		c4.848-0.766,9.575-3.83,14.172-9.193c2.932-3.419,5.706-7.1,8.325-11.039c0.924,4.915,2.442,9.391,4.591,13.402
		c3.107,5.824,8.322,9.816,15.633,11.979c4.871,1.352,9.338,0.813,13.398-1.623c3.861-2.318,7.41-5.564,10.662-9.717
		c0.41,2.626,1.726,4.649,3.953,6.063c2.977,1.896,6.295,2.842,9.949,2.842s7.035-0.875,10.15-2.639
		c3.109-1.758,4.936-4.396,5.482-7.918c0.266-3.248,0.945-7.24,2.029-11.979c1.08-4.734,2.297-9.27,3.654-13.604
		c1.352-4.326,2.773-8.121,4.264-11.369c1.484-3.248,2.906-5.139,4.264-5.684c0.539,1.357,0.672,4.535,0.406,9.541
		c-0.273,5.012,0.133,10.152,1.219,15.43c1.078,5.279,3.311,10.018,6.699,14.213c3.381,4.199,8.996,6.293,16.852,6.293
		c4.6,0,9.338-2.367,14.211-7.105c3.064-2.976,5.968-6.249,8.71-9.817c0.709,3.748,1.764,7.284,3.192,10.593
		c2.653,6.157,6.808,10.461,12.465,12.907c3.131,1.261,6.927,1.482,11.384,0.66c4.714-1.202,8.77-3.582,12.164-7.141
		c3.392-3.558,6.236-7.659,8.542-12.299c1.869,5.844,5.631,9.99,11.291,12.432c3.51,1.522,6.96,1.594,10.36,0.208
		c3.398-1.387,6.598-3.576,9.602-6.568c3.003-2.992,5.77-6.531,8.309-10.626c2.535-4.09,4.796-8.063,6.783-11.924
		c1.983-3.856,3.672-7.397,5.051-10.616c1.381-3.219,2.354-5.408,2.936-6.568C661.627,294.793,661.687,293.251,660.946,291.907z
		 M245.248,306.591c-0.993,6.737-2.432,12.865-4.305,18.381c-1.879,5.521-4.088,10.051-6.624,13.579
		c-2.541,3.535-5.248,5.082-8.114,4.638c-2.872-0.441-5.025-2.651-6.458-6.624c-1.439-3.975-2.318-8.778-2.65-14.408
		c-0.331-5.63-0.114-11.591,0.663-17.884c0.771-6.292,2.039-12.088,3.809-17.389c1.765-5.298,4.026-9.547,6.79-12.75
		c2.758-3.198,5.904-4.471,9.439-3.809c2.427,0.445,4.249,2.432,5.465,5.962c1.21,3.533,2.039,7.177,2.484,10.929
		C246.407,293.4,246.241,299.858,245.248,306.591z M605.012,305.96c-1.777,6.062-3.886,11.507-6.314,16.333
		c-2.434,4.83-5.045,8.708-7.828,11.624c-2.787,2.921-5.472,3.994-8.047,3.219c-2.582-0.775-4.276-3.08-5.083-6.914
		c-0.812-3.835-1.003-8.361-0.584-13.575c0.418-5.214,1.382-10.662,2.903-16.342c1.516-5.683,3.423-10.844,5.729-15.485
		c2.301-4.642,4.924-8.253,7.872-10.843c2.945-2.582,6-3.348,9.16-2.286c2.174,0.721,3.591,2.778,4.254,6.179
		c0.661,3.4,0.953,6.854,0.881,10.357C607.771,293.992,606.79,299.903,605.012,305.96z"/>
	<path fill-rule="evenodd" clip-rule="evenodd" fill="#E6CB46" d="M323.376,120.373c-6.5,0.683-12.915,0.388-19.094-2.087
		c-2.554-1.023-4.957-2.358-7.472-3.452c-6.046-2.631-11.578,0.007-12.614,6.395c-1.162,7.162,1.608,13.261,6.346,18.5
		c1.126,1.246,2.769,1.289,4.31,0.579c1.486-0.685,2.268-1.927,2.362-3.527c0.078-1.324-0.574-2.406-1.397-3.412
		c-1.769-2.165-2.96-4.636-3.497-7.37c-0.237-1.207-0.721-2.843,0.173-3.609c0.858-0.735,2.037,0.578,3.081,0.966
		c0.373,0.14,0.711,0.367,1.07,0.545c6.938,3.453,14.246,5.161,22.032,4.967c5.063-0.126,10.03-0.82,14.977-1.792
		c18.455-3.623,33.539-12.747,45.026-27.69c1.359-1.767,2.577-3.649,3.79-5.521c0.673-1.037,1.658-0.747,2.467-0.58
		c0.999,0.207,0.233,1.032,0.2,1.541c-0.054,0.846-0.285,1.687-0.502,2.515c-5.854,22.4-19.795,37.47-41.394,45.556
		c-5.742,2.151-11.617,3.815-17.758,4.397c-6.067,0.576-11.843-0.686-17.488-2.736c-2.25-0.816-4.542-1.31-6.896-0.77
		c-4.755,1.087-7.285,5.738-6.339,11.181c1.152,6.634,4.928,11.688,9.837,15.877c4.995,4.264,10.6,7.68,16.704,10.221
		c7.24,3.014,14.807,4.695,22.592,5.162c4.984,0.3,10.003-0.083,14.929-1.065c17.901-3.573,32.299-12.684,42.706-27.702
		c8.202-11.836,12.023-25.034,11.554-39.525c-0.328-10.143-2.876-19.607-7.454-28.587c-0.381-0.747-0.549-1.474-0.518-2.293
		c0.238-6.285,0.499-12.569,0.679-18.856c0.077-2.731-1.602-4.393-4.317-4.42c-2.925-0.029-5.849-0.006-8.773-0.007
		c-2.868,0-5.74,0.116-8.601-0.035c-2.539-0.135-4.646,1.681-4.56,4.51c0.126,4.125,0.034,8.257,0.029,12.386
		c-0.001,0.625,0.023,1.238-0.264,1.847c-3.15,6.67-7.354,12.629-12.386,17.986c-2.274,2.421-4.927,4.458-7.563,6.495
		c-4.627,3.577-9.709,6.32-15.129,8.479C337.518,118.112,330.53,119.622,323.376,120.373z M399.778,95.888
		c15.324,33.339-4.23,72.829-40.046,80.704c-4.203,0.924-8.475,1.321-12.474,1.415c-14.815-0.313-27.626-5.059-38.563-14.68
		c-2.632-2.315-4.635-5.054-5.541-8.501c-0.058-0.221-0.157-0.433-0.199-0.656c-0.443-2.364-0.063-2.726,2.214-1.9
		c6.131,2.223,12.404,3.677,18.966,3.329c8.782-0.466,17.147-2.834,25.164-6.271c24.187-10.368,38.992-28.467,44.15-54.335
		c0.266-1.335,0.721-1.763,2.177-1.864C397.911,92.969,398.867,93.906,399.778,95.888z M389.006,71.985
		c2.455,0.08,4.914,0.057,7.37,0.008c0.881-0.018,1.2,0.22,1.152,1.151c-0.184,3.536-0.315,7.076-0.421,10.615
		c-0.028,0.941-0.365,1.304-1.335,1.28c-2.284-0.055-4.57-0.046-6.855-0.003c-0.887,0.017-1.227-0.299-1.207-1.188
		c0.039-1.827,0.012-3.656,0.012-5.485c-0.002-1.657,0.043-3.315-0.019-4.97C387.667,72.412,387.88,71.948,389.006,71.985z"/>
	<path fill-rule="evenodd" clip-rule="evenodd" fill="#E6CB46" d="M254.84,59.299c1.543,0.629,1.986,1.877,1.966,3.405
		c-0.011,0.799-0.087,1.61,0.014,2.396c0.686,5.324,1.015,10.675,1.397,16.026c0.112,1.577,0.165,3.174,0.365,4.735
		c0.475,3.703,0.718,7.421,1.028,11.135c0.141,1.688,0.193,3.4,0.385,5.065c0.429,3.707,0.703,7.425,0.996,11.139
		c0.243,3.093,0.439,6.203,0.708,9.288c0.337,3.88,0.674,7.761,0.997,11.644c0.131,1.58,0.156,3.183,0.379,4.73
		c0.524,3.643,0.709,7.311,0.996,10.966c0.247,3.15,0.431,6.324,0.736,9.456c0.466,4.774,0.764,9.564,1.316,14.331
		c0.825,7.127,5.574,12.484,13.195,12.579c7.626,0.096,15.254,0.033,22.881,0.022c1.68-0.002,3.181-0.466,4.101-2.015
		c1.708-2.876-0.223-6.178-3.687-6.198c-7.512-0.042-15.025-0.008-22.537-0.019c-3.246-0.005-5.416-1.82-5.707-4.969
		c-0.638-6.9-1.179-13.81-1.754-20.716c-0.622-7.477-1.226-14.957-1.856-22.433c-0.631-7.476-1.295-14.949-1.924-22.425
		c-0.634-7.534-1.237-15.069-1.864-22.604c-0.642-7.705-1.257-15.413-1.977-23.111c-0.145-1.543,0.389-1.756,1.758-1.75
		c11.699,0.052,23.398,0.03,35.096,0.03c11.183,0,22.366,0,33.548,0c3.171,0,3.221,0.003,2.976,3.108
		c-0.52,6.566-1.101,13.127-1.65,19.691c-0.56,6.677-1.128,13.354-1.663,20.033c-0.177,2.211,1.509,4.381,3.453,4.561
		c2.022,0.187,4.387-1.419,4.623-3.28c0.309-2.43,0.514-4.875,0.706-7.318c0.374-4.774,0.613-9.562,1.084-14.326
		c0.655-6.638,1.207-13.282,1.731-19.931c0.076-0.975-0.221-2.238,0.94-2.909c1.846-1.065,2.414-2.748,2.41-4.753
		C349.992,49.491,350,44.1,350,38.71c0-4.441-1.396-5.846-5.813-5.847c-7.111-0.001-14.223-0.032-21.333,0.029
		c-1.283,0.011-1.67-0.328-1.643-1.63c0.083-4.012,0.035-8.028,0.028-12.042c-0.006-3.719-1.571-5.279-5.313-5.284
		c-6.021-0.007-12.043-0.002-18.064-0.002c-3.842,0-7.685-0.002-11.527,0.003c-2.546,0.003-4.576,1.313-4.46,4.479
		c0.135,3.723,0.031,7.454,0.031,11.181c0,3.264,0,3.264-3.349,3.264c-6.881,0-13.763-0.014-20.645,0.009
		c-2.876,0.009-4.537,1.157-4.571,3.489c-0.101,6.764-0.052,13.529-0.016,20.294C253.331,57.756,253.654,58.816,254.84,59.299z
		 M291.547,22.141c3.324,0.07,6.65,0.025,9.976,0.025c3.383,0,6.767,0.051,10.147-0.028c1.183-0.028,1.471,0.4,1.448,1.483
		c-0.055,2.637-0.061,5.276,0.004,7.912c0.025,1.07-0.352,1.358-1.387,1.353c-6.766-0.038-13.531-0.044-20.296,0.004
		c-1.097,0.008-1.354-0.363-1.329-1.384c0.062-2.636,0.073-5.276-0.004-7.911C290.073,22.467,290.411,22.117,291.547,22.141z
		 M263.503,41.041c12.727,0.064,25.453,0.035,38.18,0.035c12.783,0,25.567,0.024,38.351-0.034c1.431-0.007,1.86,0.354,1.79,1.79
		c-0.123,2.459-0.116,4.933-0.002,7.392c0.062,1.33-0.384,1.599-1.638,1.595c-13.816-0.044-27.632-0.028-41.447-0.028
		c-11.81,0-23.619-0.026-35.428,0.034c-1.477,0.007-2.024-0.315-1.927-1.882c0.141-2.285,0.161-4.593-0.004-6.874
		C261.251,41.318,261.917,41.033,263.503,41.041z"/>
	<path fill-rule="evenodd" clip-rule="evenodd" fill="#E6CB46" d="M311.08,69.251c-2.364-0.901-5.665,0.989-6.774,3.877
		c-1.021,2.662,0.927,5.462,3.81,5.477c2.162,0.012,5.018-2.418,5.503-4.681C314.052,71.896,313.017,69.989,311.08,69.251z"/>
	<path fill-rule="evenodd" clip-rule="evenodd" fill="#E6CB46" d="M323,87.858c1.894-0.002,4.628-2.167,5.365-4.248
		c0.927-2.618-0.98-5.345-3.769-5.387c-2.235-0.033-5.131,2.452-5.588,4.795C318.515,85.543,320.426,87.861,323,87.858z"/>
	<path fill-rule="evenodd" clip-rule="evenodd" fill="#E6CB46" d="M313.417,92.291c-2.889,0.041-4.834,2.879-3.68,5.521
		c0.75,1.715,2.074,3.048,3.785,3.79c2.689,1.167,5.595-0.909,5.554-3.846C319.042,95.24,315.952,92.254,313.417,92.291z"/>
</g>
</svg>
